<?xml version="1.0" encoding="UTF-8" standalone="no"?>
<svg
   xmlns:dc="http://purl.org/dc/elements/1.1/"
   xmlns:cc="http://creativecommons.org/ns#"
   xmlns:rdf="http://www.w3.org/1999/02/22-rdf-syntax-ns#"
   xmlns:svg="http://www.w3.org/2000/svg"
   xmlns="http://www.w3.org/2000/svg"
   xmlns:sodipodi="http://sodipodi.sourceforge.net/DTD/sodipodi-0.dtd"
   xmlns:inkscape="http://www.inkscape.org/namespaces/inkscape"
   width="48"
   height="48"
   id="svg2"
   version="1.1"
   inkscape:version="0.91 r13725"
   sodipodi:docname="category.svg">
  <metadata
     id="metadata15">
    <rdf:RDF>
      <cc:Work
         rdf:about="">
        <dc:format>image/svg+xml</dc:format>
        <dc:type
           rdf:resource="http://purl.org/dc/dcmitype/StillImage" />
      </cc:Work>
    </rdf:RDF>
  </metadata>
  <defs
     id="defs13" />
  <sodipodi:namedview
     pagecolor="#ffffff"
     bordercolor="#666666"
     borderopacity="1"
     objecttolerance="10"
     gridtolerance="10"
     guidetolerance="10"
     inkscape:pageopacity="0"
     inkscape:pageshadow="2"
     inkscape:window-width="1425"
     inkscape:window-height="768"
     id="namedview11"
     showgrid="false"
     inkscape:zoom="8.9827007"
     inkscape:cx="10.540085"
     inkscape:cy="22.918432"
     inkscape:window-x="85"
     inkscape:window-y="13"
     inkscape:window-maximized="0"
     inkscape:current-layer="svg2" />
  <!-- Created with SVG-edit - http://svg-edit.googlecode.com/ -->
  <title
     id="title4">Category Icon</title>
  <path
     style="fill:#000000"
     d="m 19.692668,45.944429 c -0.24201,-0.612082 -0.74837,-1.674842 -1.125244,-2.361679 -0.376872,-0.686846 -0.983264,-2.008297 -1.347536,-2.936556 -0.364273,-0.928252 -0.611932,-1.441426 -0.550355,-1.140369 0.292769,1.431364 -0.710108,0.850895 -1.089861,-0.630824 -0.210656,-0.821941 -0.290526,-0.917963 -0.698623,-0.83995 -0.253427,0.04841 -0.460776,0.204201 -0.460776,0.346117 0,0.714208 0.64245,3.17191 0.936588,3.582922 0.184754,0.258168 0.486715,0.696865 0.671023,0.974879 0.409305,0.617412 1.40082,3.550003 1.250936,3.699883 -0.13188,0.131894 -0.799736,-1.390698 -0.99002,-2.257061 -0.07609,-0.346445 -0.475239,-1.135804 -0.886988,-1.754118 -0.541757,-0.813546 -0.844129,-1.570535 -1.094198,-2.739317 -0.190058,-0.888303 -0.413829,-1.615098 -0.497265,-1.615098 -0.08343,0 -0.178555,0.418455 -0.211373,0.92991 -0.04296,0.669545 -0.141886,0.929903 -0.353323,0.929903 -0.205521,0 -0.311723,-0.249716 -0.353855,-0.83202 -0.04098,-0.566501 -0.15032,-0.832019 -0.342597,-0.832019 -0.155319,0 -0.2824,0.144516 -0.2824,0.321153 0,0.176629 -0.165354,0.683184 -0.367455,1.125676 -0.383505,0.839656 -1.602769,4.506343 -1.9763591,5.943482 -0.1189531,0.457615 -0.3104133,0.832028 -0.4254574,0.832028 -0.1150431,0 -0.1553201,-0.140332 -0.08951,-0.311842 0.06582,-0.171518 0.1743981,-0.545931 0.2412941,-0.832028 0.1347492,-0.576301 1.4417924,-4.517187 1.9625134,-5.917205 0.187563,-0.504283 0.271667,-1.053194 0.192842,-1.258608 -0.121963,-0.317828 -0.273735,-0.232002 -1.190101,0.672978 -1.5068168,1.488095 -1.933473,0.999262 -0.56425,-0.646483 0.363618,-0.437054 0.416531,-0.620038 0.240599,-0.832028 C 9.8982259,37.092991 9.3415794,37.26812 8.3803319,38.16725 l -0.933144,0.872854 -0.237669,2.774997 c -0.130725,1.526251 -0.282479,2.847507 -0.337245,2.93612 -0.05477,0.08861 -0.2288989,0.111495 -0.3869611,0.05085 -0.3776476,-0.144922 -0.3637344,-0.702118 0.098473,-3.943909 0.2122211,-1.488445 0.4743661,-4.374815 0.5825461,-6.414154 0.287863,-5.426595 0.52518,-7.092513 1.479461,-10.385535 0.2687791,-0.927502 0.4876823,-1.962831 0.4864503,-2.300723 -0.0021,-0.575728 -0.04411,-0.539137 -0.6682523,0.58201 -0.751069,1.349158 -1.151215,3.180328 -1.47246,6.73838 -0.4014346,4.446212 -0.7654063,6.355119 -1.8535277,9.721127 -0.5852228,1.810334 -1.306487,4.062367 -1.6028103,5.004504 -0.2963234,0.942144 -0.6182985,1.71299 -0.7154994,1.71299 -0.2031135,0 0.0082,-1.163901 0.2706771,-1.490923 0.096417,-0.120136 0.4342278,-1.133246 0.7506759,-2.251362 0.316448,-1.118106 0.8839267,-2.9149 1.2610627,-3.992873 0.7148417,-2.043237 1.3574773,-5.635759 1.5754786,-8.807407 0.1839731,-2.676586 0.6939541,-5.159739 1.3173511,-6.414331 0.9084661,-1.828299 1.8906389,-3.246311 2.4640261,-3.557437 0.294434,-0.159765 0.442461,-0.29401 0.328949,-0.298321 -0.42217,-0.016 -1.9800351,1.130744 -2.8025901,2.063046 -1.3338202,1.511786 -2.9620108,5.167198 -2.9620108,6.649953 0,0.457807 -0.3169648,0.815957 -0.5319092,0.601012 -0.1778542,-0.177858 0.7027113,-2.99593 1.4405529,-4.610194 1.2117651,-2.651126 3.0693833,-4.519562 5.1112852,-5.141056 0.783808,-0.238561 1.125931,-0.555631 0.58731,-0.544299 -0.685282,0.01439 -2.8873881,0.755336 -3.5927151,1.208791 -0.914575,0.587987 -2.449122,2.841621 -3.5501446,5.213741 -0.8696449,1.873628 -1.8279456,3.349152 -2.1794519,3.35577 -0.181164,0.0033 -0.1115218,-0.201029 0.2150115,-0.631203 0.2656284,-0.349941 1.1208893,-1.895126 1.9005792,-3.43375 0.9817288,-1.937322 1.734237,-3.141231 2.4473418,-3.915402 0.566349,-0.614843 0.99601,-1.214801 0.954803,-1.333235 -0.0412,-0.118429 0.06015,-0.327435 0.225252,-0.464451 0.165096,-0.137015 0.302945,-0.392508 0.306328,-0.567747 0.0071,-0.364074 0.6453192,-0.877113 1.3642388,-1.096529 0.2691842,-0.08218 0.6215693,-0.262327 0.7830793,-0.400379 0.454265,-0.38829 1.809671,-0.900873 2.093808,-0.791842 0.154638,0.05935 0.479622,-0.296098 0.827257,-0.904788 0.529076,-0.926375 0.550236,-1.0366 0.278597,-1.451175 C 13.542855,12.26362 13.439535,11.814593 13.47494,11.512541 13.52686,11.069472 13.45495,10.951367 13.102729,10.90131 12.447745,10.808229 11.829464,9.9120125 11.914966,9.1796278 11.98461,8.5830287 11.971231,8.5713902 11.431809,8.7594342 11.126675,8.8658049 10.617472,8.9009253 10.300243,8.8374772 8.0321559,8.3838619 6.9948819,5.4988661 8.3382649,3.380573 8.957392,2.4043085 9.2169592,2.2158733 10.530487,1.7891156 c 1.739298,-0.5650908 2.468777,-0.568758 3.632425,-0.018262 1.0663,0.5044398 1.081495,0.5057635 1.792067,0.1560874 0.507982,-0.2499786 1.17692,-0.3538124 2.297386,-0.3566049 1.425838,-0.0035 1.649965,0.04882 2.287237,0.5344268 0.599161,0.4565739 0.895308,0.5383681 1.949249,0.5383681 1.090788,0 1.3824,0.087347 2.384829,0.7143732 0.906979,0.5673215 1.235875,0.916831 1.597749,1.6978956 0.36315,0.7838273 0.412005,1.0660821 0.240611,1.3901523 -0.460783,0.871238 -1.17098,1.6462556 -1.6094,1.7562923 -0.497121,0.1247719 -0.600342,0.4696706 -0.855747,2.8593966 -0.12711,1.18931 -0.169814,1.276417 -0.653176,1.332404 -0.403936,0.04682 -0.495382,0.14323 -0.417651,0.440481 0.05473,0.20932 0.01142,0.380586 -0.09624,0.380586 -0.107674,0 -0.241844,0.176191 -0.298159,0.39154 -0.05632,0.215349 -0.242782,0.391539 -0.414373,0.391539 -0.197984,0 -0.311983,0.170077 -0.311983,0.465452 0,0.821032 -0.434207,0.990925 -1.794691,0.70221 -1.164892,-0.247197 -1.213223,-0.241287 -1.563494,0.191278 -0.469956,0.580367 -0.456976,0.925399 0.04491,1.194001 0.585694,0.313457 1.159803,0.92756 1.159803,1.240606 0,0.148323 0.131288,0.378642 0.291762,0.511826 0.182335,0.151321 0.248603,0.414103 0.176685,0.700645 -0.09408,0.37482 -0.02227,0.481795 0.393432,0.586126 0.438525,0.110069 0.508511,0.232491 0.508511,0.88949 0,0.604994 -0.07304,0.761854 -0.354738,0.761854 -0.329757,0 -0.338822,0.09306 -0.128736,1.321449 0.124301,0.726795 0.40546,1.673832 0.624788,2.104529 0.219327,0.430688 0.681911,1.465824 1.027962,2.300294 0.346051,0.83447 0.695195,1.517224 0.775875,1.517224 0.08068,0 0.588689,-0.522662 1.128911,-1.161475 l 0.982223,-1.161467 0.106426,-2.802875 c 0.172149,-4.533558 1.199263,-6.728007 3.668075,-7.836936 l 0.880965,-0.395706 -0.783081,-0.22685 c -0.620763,-0.179836 -0.795277,-0.330701 -0.84192,-0.727848 -0.09419,-0.802021 0.374947,-1.047032 1.474637,-0.770121 0.897419,0.225974 0.941353,0.21651 1.344936,-0.289632 0.478018,-0.599497 1.149539,-0.594603 1.163921,0.0085 0.02118,0.888337 0.299948,1.009221 4.766231,2.066852 l 4.383943,1.038133 0.412423,-0.490829 c 0.462846,-0.550841 1.097614,-0.536158 1.097614,0.02542 0,0.458019 0.893276,1.174475 1.464335,1.174475 0.237976,0 0.597582,0.182218 0.799129,0.404918 0.338557,0.374102 0.34322,0.444875 0.06128,0.929911 -0.167842,0.28874 -0.385164,0.512617 -0.482931,0.497504 -0.09776,-0.01516 -0.469024,-0.08928 -0.825015,-0.1648 l -0.647251,-0.13731 0.882942,1.289668 c 0.951846,1.390311 1.199844,2.219637 1.048408,3.505919 -0.167573,1.423374 -2.073619,5.785377 -3.549864,8.123902 -0.252743,0.400371 -0.68899,1.180755 -0.969439,1.734197 -0.442209,0.87266 -0.471747,1.037922 -0.222481,1.244793 0.389901,0.323588 0.362117,0.896258 -0.05857,1.207291 -0.427274,0.3159 -1.024388,1.231262 -1.024395,1.570374 -8e-6,0.351759 -1.212841,1.282015 -1.886674,1.447092 -0.517741,0.12684 -0.84378,0.390528 -0.851104,0.688352 -0.0016,0.06709 0.441945,0.164681 0.985761,0.216932 1.123983,0.107997 2.715958,1.096823 4.851599,3.013476 1.170052,1.05008 3.165063,3.459469 3.165063,3.822476 0,0.497899 -0.728507,-0.06415 -2.747019,-2.119347 -3.539968,-3.604306 -4.914717,-4.457054 -6.466873,-4.011363 l -0.672493,0.193105 0.844893,0.01769 c 1.048758,0.02189 1.417014,0.214859 2.801746,1.46791 1.606779,1.45398 4.15939,4.618615 3.725403,4.618615 -0.105479,0 -0.675663,-0.638696 -1.267097,-1.419333 -0.591434,-0.780628 -1.45188,-1.771714 -1.9121,-2.202411 l -0.836766,-0.783079 0.616087,0.803461 c 0.734352,0.957695 2.390359,3.615961 2.390359,3.837076 0,0.411106 -0.34657,0.05927 -0.859101,-0.872171 -0.612653,-1.113385 -2.41568,-3.635905 -3.218265,-4.502503 -0.395478,-0.427025 -0.673226,-0.538372 -1.342936,-0.538372 -0.811237,0 -0.844338,0.02349 -0.844338,0.598789 0,0.369539 0.221329,0.875472 0.578091,1.321451 0.654352,0.817993 2.04914,3.757092 1.782975,3.757092 -0.09573,0 -0.52671,-0.728582 -0.95773,-1.619064 -0.431019,-0.890484 -0.967142,-1.7851 -1.191388,-1.988039 -0.564858,-0.511194 -0.510519,-0.13012 0.09717,0.681458 0.910444,1.215905 1.861907,3.317184 1.502025,3.317184 -0.09511,0 -0.36709,-0.462505 -0.604384,-1.027794 -0.237296,-0.565288 -0.606228,-1.248033 -0.819851,-1.517215 -0.28514,-0.359302 -0.232059,-0.139239 0.199653,0.827725 0.323429,0.72443 0.588057,1.468847 0.588057,1.654257 0,0.516457 -0.263437,0.104734 -0.867813,-1.356306 -0.300648,-0.726795 -0.611164,-1.321449 -0.690033,-1.321449 -0.07887,0 -0.302852,0.176198 -0.497739,0.391547 -0.194888,0.215339 -0.516878,0.39154 -0.715538,0.39154 -0.38159,0 -0.497473,0.479974 -0.165428,0.685195 0.316934,0.195874 0.234501,1.076735 -0.100756,1.076735 -0.25134,0 -0.938946,-0.877854 -1.129643,-1.442191 -0.03153,-0.09333 -0.57507,0.192986 -1.207852,0.636245 -1.289308,0.903207 -2.201015,1.038243 -3.344849,0.49546 -0.739341,-0.350829 -1.160992,-0.911756 -1.579706,-2.101461 -0.158389,-0.45002 -0.670031,-1.21466 -1.136985,-1.699191 -1.025121,-1.063709 -1.165121,-1.587171 -0.731476,-2.735057 l 0.330645,-0.875253 -0.86476,-2.197309 -0.864764,-2.197316 -0.368306,0.468231 c -0.362416,0.460735 -0.360205,0.500197 0.138345,2.466951 0.278656,1.099299 0.710534,2.623638 0.959725,3.387419 0.249191,0.763773 0.60593,1.910724 0.792752,2.548781 0.186823,0.638048 0.647688,1.623989 1.024142,2.190977 0.376458,0.566981 0.653388,1.118116 0.6154,1.224747 -0.07488,0.210162 -1.661259,-2.0846 -3.144722,-4.54896 -0.509633,-0.846603 -1.212108,-2.410318 -1.561058,-3.474913 -0.34895,-1.064593 -0.690162,-1.935628 -0.758252,-1.935628 -0.06809,0 -0.286848,0.180172 -0.486133,0.400379 -0.350146,0.386909 -0.350774,0.457715 -0.01864,2.104529 0.40241,1.995279 0.717241,3.040517 1.61767,5.370624 0.363181,0.939821 0.660327,1.754715 0.660327,1.810872 0,0.256249 -0.356996,0.06576 -0.450669,-0.240497 -0.05764,-0.188432 -0.430424,-1.223568 -0.828418,-2.300303 -0.397993,-1.076734 -0.927297,-2.824883 -1.176235,-3.884779 -0.248938,-1.059888 -0.490547,-1.965012 -0.53691,-2.01137 -0.04636,-0.04638 -0.19684,0.05127 -0.334393,0.217059 -0.196607,0.236894 -0.203027,0.535745 -0.03002,1.397231 0.121049,0.602738 0.171791,1.174029 0.112758,1.269546 -0.249211,0.403225 -0.493286,0.104677 -0.791585,-0.968244 -0.17809,-0.640556 -0.479279,-1.242931 -0.686016,-1.37205 -0.292638,-0.182749 -0.368544,-0.175643 -0.368544,0.03452 0,0.472271 0.714385,2.327841 1.85901,4.828674 0.616023,1.345918 1.132505,2.611649 1.147734,2.812736 0.016,0.211247 -0.150882,0.433146 -0.395248,0.525573 -0.378663,0.143213 -0.469003,0.04344 -0.86296,-0.95293 z m 10.914827,-0.04816 c 0.303114,-0.114277 0.821726,-0.468727 1.152473,-0.787667 0.444669,-0.428785 0.900002,-0.628491 1.747505,-0.766426 1.226427,-0.199603 1.360209,-0.309879 1.662626,-1.370449 0.433244,-1.51937 0.107741,-7.594346 -0.43605,-8.138131 -0.09682,-0.09682 -2.498705,6.741379 -2.498705,7.113848 0,0.115554 0.264288,0.268138 0.587309,0.339087 0.630601,0.138506 0.762313,0.579711 0.384053,1.286493 -0.166878,0.311817 -0.337333,0.35835 -0.952406,0.259988 -0.685477,-0.109612 -0.759922,-0.07686 -0.875863,0.385058 -0.138113,0.550284 -0.221139,0.551327 -2.275414,0.02862 -0.820838,-0.208869 -0.876878,-0.264218 -0.821089,-0.811035 0.04761,-0.466638 -0.04037,-0.632541 -0.429459,-0.809826 -0.442491,-0.201609 -0.47165,-0.284632 -0.304591,-0.867137 0.101615,-0.3543 0.184748,-0.668458 0.184748,-0.698144 0,-0.02963 0.220242,0.0018 0.489426,0.06886 0.269184,0.06753 0.489424,0.08531 0.489424,0.0394 0,-0.04589 0.305186,-1.747086 0.678193,-3.780481 0.373006,-2.033394 0.654005,-3.721269 0.624442,-3.750829 -0.308101,-0.308105 -3.216137,3.661046 -4.146609,5.65966 -0.658216,1.413827 -0.626566,1.955213 0.152138,2.602261 0.357986,0.297461 0.978735,1.225494 1.419331,2.12193 0.982421,1.998824 1.705281,2.426558 3.168518,1.874893 z m 3.169915,-0.452113 c -0.128991,-0.283099 -0.310742,-0.514723 -0.4039,-0.514723 -0.09315,0 -0.02846,0.272474 0.143746,0.6055 0.374097,0.723427 0.59587,0.646038 0.260154,-0.09078 z m -4.299605,-2.37454 c 0.0059,-0.107674 -0.07463,-0.06364 -0.179012,0.09789 -0.104377,0.161507 -0.184932,0.425797 -0.179013,0.587306 0.01128,0.310072 0.33764,-0.31436 0.358025,-0.685197 z M 24.29593,42.237597 c -0.157112,-0.511448 -0.609008,-2.119212 -1.004214,-3.572803 -0.395211,-1.45359 -0.749429,-2.68205 -0.787155,-2.729904 -0.03773,-0.04782 -0.242592,0.08699 -0.455255,0.29965 -0.385035,0.38504 -0.384194,0.394461 0.199371,2.240483 0.498936,1.578298 1.992841,4.692484 2.251031,4.692484 0.04503,0 -0.04667,-0.418464 -0.203778,-0.92991 z m 8.674766,0.685195 c -0.09588,-0.292006 -1.126893,-0.45316 -1.126893,-0.176148 0,0.222942 0.335612,0.383322 0.848336,0.405406 0.203831,0.0087 0.324191,-0.09027 0.278557,-0.229258 z m -15.338592,-2.99058 c -0.532227,-1.541648 -0.835772,-2.219747 -0.772309,-1.725282 0.09715,0.756853 1.457384,4.457006 1.589801,4.324595 0.03265,-0.03267 -0.335217,-1.202341 -0.817492,-2.599313 z m 11.980737,1.917914 c -0.06505,-0.06508 -0.111317,0.05061 -0.102828,0.256949 0.0094,0.228062 0.05578,0.274452 0.118281,0.118281 0.05654,-0.141326 0.0496,-0.310174 -0.01545,-0.375231 z m -1.31798,-0.265156 c -0.162019,-0.100656 -0.297457,-0.08269 -0.341377,0.04529 -0.04005,0.116669 0.04806,0.287217 0.195771,0.378996 0.162019,0.100656 0.297457,0.08269 0.341376,-0.0453 0.04005,-0.116668 -0.04806,-0.287224 -0.19577,-0.378994 z m 3.940782,-4.776122 c 0.531696,-1.828318 0.897215,-3.393726 0.812264,-3.478677 -0.08495,-0.08494 -0.624143,1.631188 -1.198208,3.813646 -1.604439,6.099678 -1.445106,5.961383 0.385944,-0.334969 z m -0.796685,-2.206286 c 0.262723,-1.171115 0.298576,-1.615106 0.130415,-1.615106 -0.217495,0 -0.448091,0.927233 -1.501839,6.038857 -0.207464,1.006391 -0.368563,2.019501 -0.357998,2.251352 0.01821,0.399689 0.943253,-3.17073 1.729415,-6.675103 z m 1.752146,3.212947 c 0.659715,-1.920693 1.14322,-3.583218 1.074454,-3.69448 -0.106081,-0.171636 -2.407408,6.652557 -2.418063,7.170343 -0.008,0.39457 0.192172,-0.123576 1.343609,-3.475863 z m -3.969803,2.86 c -0.06505,-0.06508 -0.111316,0.0506 -0.102828,0.256947 0.0094,0.228063 0.05578,0.274454 0.118281,0.118268 0.05654,-0.141317 0.0496,-0.310166 -0.01545,-0.375221 z m 2.594982,-0.640329 c 0,-0.185098 -0.0622,-0.148912 -0.168251,0.09788 -0.09254,0.215348 -0.16825,0.52369 -0.16825,0.685196 0,0.185098 0.0622,0.148911 0.16825,-0.09788 0.09254,-0.215347 0.168251,-0.523688 0.168251,-0.685195 z m -2.387837,-0.244715 c -0.05432,-0.134591 -0.09874,-0.0245 -0.09874,0.244715 0,0.269181 0.04443,0.379306 0.09874,0.244714 0.0543,-0.134598 0.0543,-0.354839 0,-0.489429 z m 2.925783,-6.509353 c -0.1089,-0.29086 -0.229541,0.10969 -0.99103,3.290632 -0.951753,3.975733 -0.844542,4.047894 0.20107,0.135349 0.47479,-1.776617 0.830272,-3.318306 0.78996,-3.425981 z m -16.265324,5.375872 c -0.162255,-0.520767 -0.277336,-0.699105 -0.285146,-0.441887 -0.0125,0.413202 0.380156,1.492084 0.499621,1.372622 0.03166,-0.03166 -0.06484,-0.450498 -0.214475,-0.930735 z m 13.535313,0.154628 c -0.0543,-0.13459 -0.09874,-0.0245 -0.09874,0.244716 0,0.269182 0.04443,0.379305 0.09874,0.244715 0.0543,-0.13459 0.0543,-0.354831 0,-0.489431 z m 6.918065,-0.453925 c 0,-0.127742 -0.132149,-0.341933 -0.293655,-0.475977 -0.253528,-0.210415 -0.292804,-0.126747 -0.28743,0.612285 0.0058,0.795177 0.02665,0.828988 0.293655,0.475976 0.158087,-0.209009 0.28743,-0.484539 0.28743,-0.612284 z m -2.833997,-4.390403 c 0.07462,-0.302631 0.05218,-0.415441 -0.0586,-0.294633 -0.182942,0.199495 -1.623037,4.994799 -1.594383,5.309064 0.01603,0.175938 1.433215,-4.123148 1.652986,-5.014431 z m -23.203413,4.599621 c 0.134043,-0.161514 0.199663,-0.293656 0.145826,-0.293656 -0.05385,0 -0.207555,0.132136 -0.341597,0.293656 -0.134044,0.161509 -0.199664,0.293657 -0.145827,0.293657 0.05384,0 0.207555,-0.132148 0.341598,-0.293657 z m 20.260296,-4.772233 c 0.08343,-0.454406 0.06284,-0.638974 -0.05734,-0.51356 -0.188617,0.196844 -1.039359,4.443713 -1.00004,4.992137 0.01958,0.273012 0.763275,-2.876982 1.057374,-4.478577 z m -14.46469,3.944289 c -0.06505,-0.06508 -0.111316,0.05059 -0.102828,0.256949 0.0094,0.228061 0.05578,0.274452 0.118281,0.118267 0.05654,-0.141317 0.0496,-0.310174 -0.01545,-0.375223 z m 4.999292,-1.668123 c 1.643393,-1.597149 2.613814,-2.74043 3.531124,-4.160117 0.695717,-1.076735 1.322011,-2.111593 1.391764,-2.299688 0.06975,-0.188087 0.564412,-0.990453 1.09924,-1.783037 l 0.972414,-1.441055 1.287224,-0.10334 c 0.707972,-0.05683 1.419223,-0.212873 1.580555,-0.346765 0.399602,-0.331645 1.963617,-0.137866 2.451586,0.303734 0.213334,0.193063 0.390455,0.61609 0.399051,0.953064 0.0085,0.333244 0.06147,0.491064 0.117704,0.350688 0.05624,-0.140374 0.0487,-0.536805 -0.01675,-0.88096 -0.08841,-0.464854 -0.320014,-0.74051 -0.900783,-1.07208 -0.752818,-0.429797 -1.107818,-0.993181 -0.472108,-0.749232 0.170316,0.06533 0.61529,0.118832 0.988831,0.118832 0.533548,0 0.821962,0.155875 1.345191,0.727006 0.366316,0.399858 0.710723,0.682316 0.765349,0.627692 0.05463,-0.05464 -0.239398,-0.46988 -0.653392,-0.92278 -0.647536,-0.708398 -0.863681,-0.823457 -1.546857,-0.823457 -0.780873,0 -1.251677,-0.27318 -0.769526,-0.446517 0.351458,-0.126344 1.570904,0.07351 1.865767,0.305805 0.137193,0.108086 0.296002,0.149948 0.352907,0.09305 0.05691,-0.05691 -0.133292,-0.2897 -0.422675,-0.517323 -0.388719,-0.305764 -0.803481,-0.413859 -1.588024,-0.413859 -0.658072,0 -1.015875,-0.07443 -0.940893,-0.195774 0.06655,-0.107674 0.619014,-0.195765 1.227706,-0.195765 1.036139,0 1.161743,0.05303 1.969652,0.83202 0.529259,0.510294 0.777133,0.664779 0.641034,0.399495 -0.122044,-0.237887 -0.515351,-0.656343 -0.874008,-0.929903 -0.593421,-0.452629 -0.82077,-0.497385 -2.526487,-0.497385 -1.82233,0 -1.919058,0.02316 -3.482906,0.832027 -1.315152,0.680271 -1.880406,1.132782 -3.09927,2.481099 -2.341207,2.589857 -3.892364,4.080636 -5.097268,4.898874 -0.61195,0.415568 -1.619186,1.302708 -2.2383,1.971427 -0.619114,0.668711 -1.171561,1.169946 -1.22766,1.113848 -0.138626,-0.138624 0.415758,-1.183382 0.794928,-1.498062 0.168609,-0.139928 0.306564,-0.400286 0.306564,-0.578573 0,-0.407106 -1.120379,-2.756999 -2.13729,-4.482777 -0.818372,-1.388838 -1.778111,-3.911696 -1.778111,-4.674104 0,-0.911608 0.352956,-0.419282 0.794225,1.107853 0.493152,1.706674 0.715547,1.987945 0.376851,0.476623 -0.279072,-1.245281 -1.278083,-3.735909 -1.815046,-4.525083 -0.958632,-1.408902 -2.988169,-1.417102 -3.870801,-0.01565 -0.3386973,0.53779 -0.3915883,0.880059 -0.3281403,2.123446 0.07035,1.378618 0.2024872,1.762098 1.8888173,5.481566 1.92593,4.247937 3.024011,6.153062 5.031458,8.729402 1.233166,1.582633 1.458354,1.782709 2.040166,1.812682 0.165008,0.0085 1.319799,-0.975636 2.5662,-2.186962 z m 5.058118,0.587305 c 0.003,-0.494499 -0.08351,-0.734137 -0.26483,-0.734137 -0.148052,0 -0.554555,-0.05709 -0.903345,-0.126828 -0.598255,-0.119652 -0.626202,-0.100244 -0.493608,0.342599 0.07731,0.258186 0.325633,0.848648 0.551843,1.312139 l 0.411291,0.842712 0.347148,-0.451174 c 0.190932,-0.248142 0.349107,-0.781528 0.351501,-1.18531 z M 9.6031356,36.902857 c 0.6479054,0 0.6857714,-0.530245 0.05498,-0.770069 C 9.3400864,36.011873 9.0008651,35.497131 8.5324389,34.424646 l -0.670469,-1.535074 -0.123938,1.272501 c -0.06817,0.699879 -0.134245,1.874566 -0.146828,2.610412 l -0.02288,1.337894 0.762308,-0.603756 c 0.419271,-0.332074 0.9918994,-0.603766 1.2725057,-0.603766 z M 38.108442,37.88171 c 0,-0.107674 -0.330362,-0.189578 -0.734136,-0.182008 -0.588916,0.01103 -0.656685,0.04706 -0.342598,0.182008 0.544024,0.23377 1.076734,0.23377 1.076734,0 z M 15.643835,37.449363 c 0.403775,-0.119316 0.734137,-0.291089 0.734137,-0.381723 0,-0.212924 0.04124,-0.217394 -1.400597,0.151985 -1.17242,0.300359 -2.719529,0.294844 -4.080964,-0.01457 -0.311181,-0.07072 -0.204235,0.03486 0.293655,0.289784 0.661973,0.338995 1.010159,0.383263 2.251356,0.286231 0.807552,-0.06315 1.798637,-0.212403 2.202413,-0.331721 z m 23.380556,-0.454684 c 0.04089,-0.123294 -0.467095,-0.217935 -1.305466,-0.2432 -0.754826,-0.02274 -1.372411,-5.89e-4 -1.372411,0.04943 0,0.367694 2.558779,0.552869 2.677877,0.193786 z M 15.563379,36.723957 c 0.238711,-0.127755 0.382304,-0.31596 0.319098,-0.418229 -0.193443,-0.313004 -0.794818,-0.207375 -1.168168,0.205169 -0.299833,0.331308 -0.544381,0.379527 -1.599286,0.31532 -0.684931,-0.04167 -1.375098,-0.183507 -1.533708,-0.315142 -0.158608,-0.131625 -0.436374,-0.182539 -0.617261,-0.113121 -0.373461,0.143304 -0.176894,0.41055 0.421784,0.57343 0.66105,0.179844 3.717414,-8.42e-4 4.177541,-0.247426 z m 20.469288,-0.337892 c 0.03442,-0.346639 0.215303,-0.632979 0.474878,-0.751692 0.23061,-0.105457 0.514154,-0.413793 0.630094,-0.685197 0.45068,-1.054962 0.684572,-1.374407 1.006309,-1.374407 0.18381,0 0.58138,-0.225208 0.883487,-0.500451 l 0.549283,-0.500451 -0.489424,0.128896 c -0.859423,0.226344 -1.518021,0.613041 -2.533486,1.487546 -1.012423,0.871885 -1.104178,1.115741 -0.86666,2.303335 0.144096,0.720481 0.267125,0.682174 0.345519,-0.107585 z M 12.4988,35.427646 C 12.306977,34.9393 11.339386,33.493009 10.348601,32.213654 8.5757189,29.924424 8.3477839,29.418872 8.7498279,28.667644 c 0.1448151,-0.27058 0.133292,-0.504393 -0.04038,-0.819147 -0.171664,-0.311127 -0.2554,-0.354242 -0.285142,-0.146832 -0.02317,0.161514 -0.146872,1.08736 -0.274918,2.057446 l -0.232806,1.763791 0.645165,1.564297 c 0.9272696,2.248305 1.2353459,2.641042 2.0717411,2.641042 l 0.689267,0 -0.516184,-0.613458 c -0.646521,-0.768344 -1.2832855,-2.000987 -1.2718995,-2.46212 0.0051,-0.207924 0.1747172,-0.03199 0.4170604,0.432675 0.7196641,1.379889 2.1776731,3.230207 2.5453261,3.230207 0.33658,0 0.33665,-0.03528 0.0018,-0.887899 z m 1.817117,0.659458 c 0.435892,-0.198602 0.485443,-0.313383 0.379376,-0.878774 -0.06709,-0.357684 -0.530843,-1.419122 -1.030536,-2.358748 -0.689188,-1.295965 -1.026311,-1.735722 -1.396389,-1.821523 -0.420523,-0.09749 -0.760174,-0.509198 -1.04839,-1.270807 -0.04075,-0.107674 -0.298917,0.0108 -0.573711,0.263194 -0.371918,0.341647 -0.616078,0.422002 -0.9552273,0.314352 -0.3720794,-0.118093 -0.4163034,-0.09456 -0.2412262,0.128347 2.1688495,2.761426 3.0727695,4.03913 3.3428275,4.725133 0.457469,1.162067 0.670128,1.28754 1.523276,0.89882 z m -2.625635,-3.909591 c -0.461283,-0.7557 -0.877631,-1.912334 -0.738468,-2.051496 0.05192,-0.05195 0.370579,0.495702 0.7081,1.216974 0.663264,1.417355 0.68083,1.900141 0.03037,0.834522 z m 27.690667,3.942266 c 0.07626,-0.123387 -0.385656,-0.195773 -1.249398,-0.195773 -0.753716,0 -1.424837,0.0881 -1.491383,0.195773 -0.07626,0.123388 0.385655,0.195766 1.249398,0.195766 0.753716,0 1.424835,-0.08809 1.491383,-0.195766 z M 27.254832,33.054382 c -0.471824,-3.314954 -0.486263,-3.37277 -0.732504,-2.932761 -0.188911,0.337571 0.07145,4.135876 0.368664,5.378474 0.09695,0.405288 0.142422,0.423953 0.401566,0.164807 0.259141,-0.259138 0.254869,-0.554809 -0.03773,-2.61052 z m -1.177882,0.688157 c -0.07702,-0.984458 -0.184148,-1.904915 -0.238081,-2.045457 -0.05737,-0.149501 -0.446181,0.263599 -0.93698,0.995512 -1.087947,1.622407 -0.999158,2.460337 0.285733,2.696567 1.082137,0.198958 1.039836,0.27729 0.889328,-1.646622 z m 12.461017,0.902364 c 0.584183,-0.142034 1.208417,-1.036903 3.34121,-4.789769 1.834047,-3.22719 2.756009,-5.64048 2.767267,-7.243488 0.0099,-1.409474 -0.261399,-2.078404 -1.415918,-3.491193 -0.590458,-0.722553 -0.658727,-0.903543 -0.460527,-1.220908 0.601981,-0.963925 -0.14474,-1.863358 -1.052939,-1.268282 -0.727992,0.476994 -0.612023,1.152786 0.380999,2.220201 2.606889,2.802183 2.575627,3.62783 -0.36333,9.595367 -0.917722,1.863434 -1.668586,3.59358 -1.668586,3.844771 0,0.591632 -0.512985,1.204573 -1.36373,1.629469 -0.373194,0.186386 -0.844689,0.647225 -1.047767,1.024089 -0.35163,0.652531 -0.351947,0.664764 -0.0066,0.256578 0.199414,-0.23574 0.599904,-0.486314 0.889979,-0.556835 z m 1.737514,0.474073 c 0.0885,-0.143203 0.143679,-0.275362 0.122622,-0.293682 -0.129945,-0.11304 -2.093883,0.426758 -2.093883,0.575529 0,0.274258 1.785336,0.01903 1.971268,-0.281847 z m -2.068986,-2.602033 c 0.982516,-0.220071 1.400407,-0.712356 2.508825,-2.955457 2.595014,-5.251517 3.047863,-6.752079 2.46632,-8.172414 -0.143501,-0.350479 -0.727,-1.189031 -1.296664,-1.863442 -0.569663,-0.674402 -1.035752,-1.357156 -1.035752,-1.517216 0,-0.160058 -0.110125,-0.290019 -0.244714,-0.288798 -0.369914,0.0033 -5.698855,15.939278 -5.540736,16.569277 0.123186,0.490811 0.132674,0.486744 1.339823,-0.573068 0.668665,-0.587051 1.479969,-1.12655 1.802898,-1.198882 z m -8.527212,0.543787 c 0.482515,-0.285028 0.58031,-0.523386 0.864108,-2.106096 0.176008,-0.98158 0.440737,-2.415334 0.588286,-3.186111 l 0.268271,-1.401419 -0.781536,0.275741 c -0.429844,0.151657 -1.017912,0.27574 -1.306815,0.27574 -0.618289,0 -0.963714,0.251501 -1.578991,1.149629 l -0.452282,0.6602 0.344552,2.656387 c 0.189502,1.461018 0.387624,2.768634 0.440266,2.905826 0.06319,0.164699 0.261211,0.05278 0.582884,-0.329531 0.267941,-0.318434 0.732007,-0.723595 1.031257,-0.900366 z m 7.701838,-7.640249 c 2.477089,-7.329625 2.63025,-7.867508 2.267268,-7.962435 -0.214101,-0.056 -0.426376,0.0018 -0.471719,0.127715 -0.379046,1.055256 -4.787856,15.615641 -4.787856,15.812197 0,0.714437 0.553738,-0.761836 2.992307,-7.977482 z m -2.331654,4.348725 c 0.827829,-2.699704 0.958724,-3.408272 0.542274,-2.935453 -0.18185,0.206466 -1.793476,5.800152 -1.784284,6.192963 0.01236,0.529547 0.36163,-0.386429 1.24201,-3.25751 z m -1.266066,1.701035 c 1.126098,-3.815431 1.390162,-4.852242 1.297388,-5.094009 -0.20621,-0.53737 -0.496206,0.0059 -0.496206,0.929135 0,0.523041 -0.08928,0.980739 -0.198395,1.01711 -0.109122,0.03638 -0.460986,1.034807 -0.781928,2.218729 -0.678065,2.50132 -0.633665,2.250485 -0.398357,2.250485 0.103106,0 0.362988,-0.594654 0.577498,-1.32145 z m -2.722678,1.019281 c 0,-0.0585 0.308337,-1.482747 0.685196,-3.164956 0.376856,-1.682199 0.685193,-3.087917 0.685193,-3.1238 0,-0.07468 -0.586505,-0.09093 -0.588844,-0.01633 -7.83e-4,0.02695 -0.264443,1.458483 -0.585776,3.181255 -0.321332,1.722781 -0.584931,3.154347 -0.585774,3.181264 -7.84e-4,0.02695 0.08657,0.04891 0.194234,0.04891 0.107673,0 0.195771,-0.04791 0.195771,-0.106404 z m 2.246422,-2.267207 c 0.373278,-1.434234 0.484202,-2.18202 0.357306,-2.408776 -0.137313,-0.245364 -0.317892,0.257774 -0.711374,1.982062 -0.290041,1.270985 -0.526135,2.438631 -0.524656,2.594759 0.0065,0.677752 0.374292,-0.229873 0.878724,-2.168045 z m -0.719164,-0.611888 c 0.719716,-3.194683 0.706079,-3.083381 0.377783,-3.083381 -0.16159,0 -0.442671,0.937396 -0.804124,2.681721 -0.30563,1.474952 -0.599699,2.796394 -0.653481,2.936549 -0.05378,0.140156 0.02577,0.254835 0.176777,0.254835 0.193321,0 0.460523,-0.825452 0.903045,-2.789724 z M 19.54382,31.684613 c 0.196907,-0.178204 0.358013,-0.455729 0.358013,-0.616723 0,-0.721154 -2.458073,-7.772109 -3.001841,-8.610738 -0.816185,-1.25876 -2.06011,-2.753259 -2.477634,-2.976709 -0.256442,-0.137241 -0.176907,0.126344 0.311699,1.032989 0.836836,1.552821 1.367692,3.152452 1.709007,5.149778 0.199042,1.164759 0.574426,2.212699 1.420078,3.964343 0.632232,1.309578 1.188473,2.381051 1.236089,2.381051 0.04762,0 0.247682,-0.145797 0.444589,-0.323991 z m 1.755098,-1.701758 c -0.156138,-0.190101 -1.592855,-4.118853 -1.592855,-4.355721 0,-0.04344 0.07839,-0.07898 0.174181,-0.07898 0.0958,0 0.50589,0.96906 0.911313,2.15347 0.405423,1.184409 0.815256,2.153469 0.91074,2.153469 0.09549,0 0.348346,-0.162795 0.561916,-0.36176 0.386127,-0.359731 0.384412,-0.371974 -0.305073,-2.178729 -1.789401,-4.689031 -3.677917,-7.291519 -6.168478,-8.500521 l -0.685195,-0.332621 0.58731,0.433316 c 1.509735,1.113865 3.544618,3.440915 4.259819,4.871445 0.40374,0.807552 0.733677,1.539552 0.733194,1.626658 -0.0021,0.40053 -0.44663,-0.202342 -1.168916,-1.585714 -0.433398,-0.830068 -1.219469,-1.994667 -1.746824,-2.587991 -1.016423,-1.143575 -3.076009,-2.686226 -3.294569,-2.467669 -0.07158,0.07157 0.316296,0.590479 0.861957,1.153106 1.734918,1.788847 2.409344,3.084021 3.771884,7.24354 l 1.25672,3.83648 0.559088,-0.398108 c 0.381344,-0.271537 0.500179,-0.46982 0.373788,-0.623708 z M 11.76947,28.970426 C 11.400518,28.16081 10.756034,26.817336 10.337288,25.984936 9.9185399,25.152529 9.4904305,24.252837 9.3859344,23.985616 9.2174572,23.554784 9.1678202,23.648769 8.947678,24.815488 8.6647099,26.315159 8.7288299,26.701334 9.5639926,28.527394 l 0.6014924,1.315145 0.475843,-0.374296 c 0.587831,-0.462389 0.95061,-0.341689 1.210069,0.402601 0.109601,0.314386 0.286935,0.571611 0.394083,0.571611 0.107151,0 -0.107061,-0.662413 -0.47601,-1.472029 z M 9.4904015,29.36572 C 9.2721543,28.886721 8.938711,28.699562 8.938711,29.056051 c 0,0.399369 0.2532002,0.799091 0.5061725,0.799091 0.2153671,0 0.2243752,-0.09686 0.04552,-0.489422 z M 36.346514,25.646094 c 0,-0.161516 -0.0881,-0.293657 -0.195771,-0.293657 -0.107674,0 -0.195771,0.132135 -0.195771,0.293657 0,0.161508 0.0881,0.293648 0.195771,0.293648 0.107674,0 0.195771,-0.132136 0.195771,-0.293648 z m -9.734513,-3.132322 c 0.194984,-3.867949 1.099062,-5.460079 3.517596,-6.194687 1.858433,-0.564481 2.686991,-1.757714 1.665263,-2.398203 -0.556421,-0.348794 -1.032016,0.09338 -1.005495,0.934853 0.02114,0.670656 -0.01961,0.71814 -0.783081,0.912761 -1.357013,0.345914 -1.870187,0.60571 -2.370193,1.199934 -1.140998,1.356003 -1.665389,3.404525 -1.665389,6.505823 0,1.716164 0.03377,1.916349 0.26637,1.579147 0.164597,-0.238619 0.307853,-1.208968 0.374929,-2.539628 z m 11.481177,-2.695176 c 0.443945,-1.479118 0.673124,-2.547012 0.56143,-2.616041 -0.103808,-0.06415 -0.255334,-0.04066 -0.336728,0.05229 -0.323671,0.369464 -2.006016,6.744721 -1.866315,7.072409 0.157174,0.368672 0.27424,0.04715 1.641613,-4.508642 z m -7.430571,2.808247 1.461699,-0.50461 0.531409,-2.936549 c 0.292271,-1.615105 0.537496,-3.046672 0.544943,-3.181264 0.02012,-0.363839 -0.733677,-0.296063 -1.326634,0.119276 -0.285804,0.200194 -0.966787,0.510513 -1.513293,0.689592 -1.953538,0.640126 -2.836564,2.243656 -3.120808,5.667235 l -0.143525,1.728684 1.052256,-0.538877 c 0.578738,-0.296384 1.710017,-0.765953 2.513953,-1.043487 z m 6.261415,-2.168659 c 0.44916,-1.561265 0.86129,-2.992831 0.915844,-3.181262 0.07098,-0.245145 -0.01223,-0.342599 -0.292347,-0.342599 -0.215348,0 -0.438128,0.154175 -0.495064,0.342599 -0.629481,2.083186 -1.49254,5.826267 -1.399373,6.069064 0.207469,0.540652 0.430232,0.03452 1.27094,-2.887802 z m -0.953995,-0.596497 c 0.761832,-2.91992 0.780825,-3.299546 0.165874,-3.315906 -0.197084,-0.0051 -1.403153,5.855215 -1.274165,6.191355 0.06798,0.177149 0.169397,0.276304 0.225365,0.22034 0.05596,-0.05599 0.453287,-1.449078 0.882926,-3.095789 z m -3.334022,2.749967 c 0.202753,0 0.458247,-0.167426 0.567766,-0.372065 0.191534,-0.357887 0.167541,-0.356978 -0.629364,0.02366 -0.88407,0.422295 -1.258469,0.690844 -0.665649,0.477466 0.197234,-0.07098 0.524496,-0.129072 0.727247,-0.129072 z m 2.314153,-2.887605 c 0.705582,-3.295675 0.71356,-3.37703 0.331175,-3.37703 -0.398811,0 -0.434395,0.09349 -0.861461,2.263452 -0.556979,2.830069 -0.657644,4.001183 -0.343927,4.001183 0.171301,0 0.460528,-0.955345 0.874213,-2.887605 z m -1.364059,0.66152 c 0.358031,-1.149032 0.834361,-3.869483 0.72666,-4.150148 -0.111495,-0.290533 -0.707026,-0.396818 -0.707026,-0.126183 0,0.18376 -0.746788,4.434989 -0.900578,5.12671 -0.105769,0.475732 -0.100734,0.477861 0.291219,0.123159 0.219368,-0.198528 0.484743,-0.636617 0.589725,-0.97354 z m -13.142037,0.464155 c 0.32381,0 0.433808,-0.275092 0.237199,-0.593215 -0.141466,-0.228896 -0.282691,-0.176342 -0.763202,0.284017 -0.607259,0.581789 -0.635917,1.163663 -0.03032,0.615609 0.186219,-0.168528 0.436562,-0.306411 0.556321,-0.306411 z m -0.553105,-1.052126 c -0.04786,-0.04631 -0.253869,0.149494 -0.457808,0.43505 l -0.370796,0.519194 0.457806,-0.435042 c 0.251794,-0.239276 0.418653,-0.472912 0.370798,-0.519202 z m -0.640775,0.118429 c 0.498001,-0.673579 0.722699,-1.34852 0.495658,-1.488845 -0.09455,-0.05843 -0.508619,0.23856 -0.920142,0.659996 -0.632274,0.647512 -0.70933,0.813102 -0.497266,1.068628 0.344502,0.415096 0.459743,0.385123 0.92175,-0.239773 z M 18.834688,17.87534 c 0.19237,-0.358873 0.216179,-0.568319 0.07456,-0.655856 -0.114438,-0.07072 -0.230584,-0.09775 -0.258095,-0.06003 -0.34312,0.470208 -1.096893,1.961156 -1.091511,2.158993 0.008,0.29795 0.856501,-0.662246 1.275055,-1.443084 z m -5.04088,0.781765 c 0.129206,-0.129207 0.234925,-0.363109 0.234925,-0.519774 0,-0.22791 -0.0768,-0.21534 -0.38425,0.06289 -0.523365,0.473637 -1.059979,0.251974 -0.93776,-0.387379 0.100957,-0.528125 -0.131679,-0.670925 -0.314945,-0.193333 -0.164349,0.428281 0.06552,0.889591 0.538507,1.08071 0.561705,0.226958 0.595102,0.225291 0.863523,-0.04311 z m 2.98195,-0.662473 c 0.216392,-0.569152 0.10832,-0.864534 -0.316301,-0.864534 -0.407835,0 -0.763943,0.993509 -0.431668,1.20432 0.40714,0.258313 0.544255,0.196027 0.747969,-0.339786 z M 13.39248,17.864231 c -0.09239,-0.277147 -0.407199,-0.246686 -0.505739,0.04891 -0.03589,0.107674 0.08156,0.195765 0.261026,0.195765 0.179456,0 0.289577,-0.110114 0.244713,-0.244706 z m 4.636048,-0.374381 c 0.324682,-0.650837 0.306604,-0.93492 -0.03255,-0.51132 -0.236398,0.295273 -0.511999,1.130408 -0.373042,1.130408 0.05321,0 0.235717,-0.278587 0.405579,-0.619088 z m 26.736095,0.418472 c 0,-0.165212 -0.780452,-0.582463 -1.08948,-0.582463 -0.200703,0 -0.06306,0.563588 0.159573,0.65343 0.431174,0.173984 0.929907,0.135921 0.929907,-0.07098 z M 9.2743163,17.381801 C 9.0948601,17.202343 8.8862949,17.117258 8.8108349,17.192712 c -0.07547,0.07544 0.03243,0.261234 0.2397442,0.412823 0.4882394,0.357011 0.6463636,0.198888 0.2237372,-0.223734 z m 5.9290367,0.423767 c 0,-0.338489 -0.640045,-1.262783 -0.874438,-1.262783 -0.660073,0 -0.532764,0.895635 0.167531,1.17859 0.501248,0.202535 0.706907,0.227026 0.706907,0.08419 z M 9.7217927,17.130098 C 9.6065476,16.914749 9.4681965,16.738559 9.4143614,16.738559 c -0.05384,0 -0.0037,0.17619 0.1116551,0.391539 0.1152441,0.215347 0.2535943,0.391539 0.3074303,0.391539 0.05384,0 0.0037,-0.176192 -0.1116571,-0.391539 z m 1.0718113,0.203729 c 0.153994,-0.249168 -0.316544,-0.986808 -0.629479,-0.986808 -0.2994462,0 -0.3153702,0.288706 -0.0439,0.795943 0.22007,0.411206 0.489933,0.487697 0.673385,0.190865 z m 1.375314,-0.203729 c 0.06655,-0.107674 0.343375,-0.195775 0.615177,-0.195775 0.308776,0 0.463273,-0.09181 0.411796,-0.244706 -0.04532,-0.1346 -0.338971,-0.244716 -0.652569,-0.244716 -0.40352,0 -0.626659,-0.128748 -0.763425,-0.440481 -0.429274,-0.978464 -1.098939,-0.258648 -0.686259,0.737649 0.238834,0.576595 0.827459,0.789006 1.07528,0.388029 z m 3.805665,-0.429578 c 0.28667,-0.179027 0.491715,-0.180342 0.875225,-0.0059 0.481514,0.219391 0.519855,0.188012 0.993435,-0.813051 0.619006,-1.308468 1.062246,-1.530291 2.317843,-1.159984 1.041976,0.307313 1.502677,0.136098 1.502677,-0.558451 0,-0.20555 0.131638,-0.424232 0.292531,-0.485971 0.424703,-0.162972 0.169946,-0.444665 -0.292727,-0.323672 -0.215239,0.05633 -0.391343,0.01473 -0.391343,-0.09229 0,-0.359142 0.505598,-0.618827 0.968941,-0.497656 0.414297,0.108331 0.446694,0.07047 0.33169,-0.387743 -0.14153,-0.563898 0.171963,-0.899439 0.517508,-0.553897 0.45282,0.452824 0.665059,0.213522 0.674928,-0.760979 0.0091,-0.904646 -0.0256,-0.97885 -0.458497,-0.97885 -0.285853,0 -0.468411,0.114451 -0.468411,0.293654 0,0.380006 -0.176967,0.371357 -0.620837,-0.03034 -0.538739,-0.4875507 -0.445799,-0.8506234 0.217741,-0.8506234 0.316666,0 0.622426,-0.075503 0.679466,-0.1678025 0.05705,-0.09229 -0.400267,-0.1698422 -1.016238,-0.1723352 -0.984952,-0.0039 -1.2319,0.079981 -2.048726,0.6965947 -0.51083,0.3856214 -1.188189,1.0239274 -1.505244,1.4184594 -0.934871,1.163321 -2.313118,1.973199 -3.24145,1.904723 -0.756124,-0.05574 -0.81096,-0.01836 -1.493829,1.018845 -0.389891,0.592196 -0.902967,1.278259 -1.140167,1.524582 l -0.431275,0.447848 0.482556,-0.121116 c 0.265407,-0.0666 0.536597,-0.03368 0.602646,0.07317 0.07853,0.127069 0.317605,0.119759 0.690858,-0.02114 0.619029,-0.23366 1.189469,0.03864 1.189469,0.567722 0,0.331611 0.277042,0.344501 0.77123,0.03587 z m 24.23848,-0.01092 c -0.123334,-0.370433 -0.73423,-0.423095 -0.73423,-0.06332 0,0.181605 0.167384,0.308012 0.407854,0.308012 0.239226,0 0.374166,-0.101169 0.326376,-0.244715 z m -1.125769,-0.244767 c 0,-0.161516 -0.132149,-0.293657 -0.293657,-0.293657 -0.161509,0 -0.293653,0.132136 -0.293653,0.293657 0,0.161506 0.132148,0.293657 0.293653,0.293657 0.161511,0 0.293657,-0.13215 0.293657,-0.293657 z m -0.978852,-0.17294 c 0,-0.148955 -0.176192,-0.316895 -0.391539,-0.373212 -0.432006,-0.112973 -0.563132,0.346396 -0.146828,0.514377 0.420323,0.169606 0.538367,0.138649 0.538367,-0.141165 z m -1.174619,-0.304931 c 0,-0.264365 -0.356877,-0.447628 -0.590504,-0.303237 -0.109423,0.0676 -0.148278,0.204976 -0.08632,0.305207 0.146957,0.237786 0.676832,0.236237 0.676832,-0.0018 z M 35.83,15.661754 c 0.08141,-0.212158 -0.02144,-0.293657 -0.370595,-0.293657 -0.553802,0 -0.652859,0.318512 -0.140684,0.452361 0.188428,0.04925 0.355196,0.09975 0.370594,0.112235 0.01542,0.0125 0.07871,-0.109434 0.140685,-0.270941 z m -1.156243,-0.279563 c 0.06176,-0.09992 -0.07184,-0.240109 -0.296855,-0.311529 -0.464756,-0.147506 -0.676025,-0.02375 -0.485563,0.284411 0.158835,0.256999 0.630246,0.273341 0.782418,0.0271 z m -1.263793,-0.405633 c 0,-0.107674 -0.176194,-0.195774 -0.391541,-0.195774 -0.215347,0 -0.391539,0.0881 -0.391539,0.195774 0,0.107685 0.176192,0.195766 0.391539,0.195766 0.215347,0 0.391541,-0.08808 0.391541,-0.195766 z m -3.578673,-1.008277 c -0.650251,-0.190487 -0.924039,-0.186596 -0.924039,0.01317 0,0.293353 1.054581,0.578767 1.217694,0.329556 0.08299,-0.1268 -0.03776,-0.267709 -0.293655,-0.342665 z M 15.077472,12.629002 c -0.230744,-0.09311 -0.559081,-0.36853 -0.729636,-0.612033 -0.170554,-0.243502 -0.365516,-0.387311 -0.43325,-0.319579 -0.193269,0.193273 0.839259,1.12715 1.230926,1.113325 0.291618,-0.01025 0.28003,-0.04125 -0.06804,-0.181713 z m 1.158577,-0.407814 c -0.347243,-0.07131 -0.861637,-0.280581 -1.1431,-0.464997 -0.487019,-0.31911 -0.508468,-0.31827 -0.443829,0.01734 0.0747,0.387927 1.431018,0.872313 1.924622,0.68735 0.185785,-0.06962 0.06173,-0.157677 -0.337693,-0.23973 z m 1.390625,-0.687368 c -0.09457,-0.01845 -0.535448,-0.14284 -0.979703,-0.276411 -0.578524,-0.17394 -0.911846,-0.184197 -1.17462,-0.03615 -0.332884,0.187556 -0.30551,0.232634 0.295401,0.48643 0.512643,0.216518 0.816899,0.232263 1.346587,0.06972 0.376367,-0.115513 0.606919,-0.225124 0.512335,-0.24358 z M 16.503929,9.9169707 c 1.767708,-1.3677503 4.77519,-5.5437742 4.764745,-6.6160652 -0.002,-0.2080358 -0.241417,0.067243 -0.55843,0.6421281 -1.513869,2.7453429 -4.454423,6.1188504 -5.885853,6.7524634 -0.329938,0.146045 -0.59989,0.327875 -0.59989,0.404066 0,0.261542 1.253496,-0.388786 2.279428,-1.1825923 z m 1.907738,0.7769013 c 0.391839,-0.432976 0.07742,-0.656744 -0.565419,-0.402396 -0.215348,0.08521 -0.633806,0.161111 -0.929907,0.168679 -0.519367,0.0133 -0.679912,0.198499 -0.407855,0.470556 0.284712,0.284711 1.576687,0.123938 1.903181,-0.236839 z m -4.763089,-0.633195 c -0.33465,-0.2035118 -0.692176,-0.5902236 -0.7945,-0.8593584 -0.255976,-0.6732654 -0.391505,-0.6127124 -0.391505,0.1749218 0,0.5847668 0.08786,0.6994666 0.734136,0.9584776 0.948136,0.379986 1.238132,0.204114 0.451869,-0.274041 z m 1.554775,-0.195018 c 0,-0.096145 -0.105301,-0.1748248 -0.234001,-0.1748248 -0.321638,0 -1.332159,-0.9930547 -1.332159,-1.3091311 0,-0.3957225 -0.350139,-0.3043445 -0.487079,0.1271089 -0.170869,0.5383588 0.166368,1.0726004 0.901954,1.4288558 0.620103,0.3003242 1.151285,0.2670972 1.151285,-0.072017 z m 2.64092,0.017756 c -0.06764,-0.1094228 -0.204975,-0.1482784 -0.305209,-0.086331 -0.271541,0.1678215 -0.220908,0.285295 0.122971,0.285295 0.167865,0 0.249874,-0.089539 0.182242,-0.1989642 z M 19.382947,9.0453762 C 18.83809,8.6167912 18.295719,8.7536718 18.178309,9.3493943 18.086497,9.8151917 19.127131,10.109205 19.553575,9.7379541 19.868884,9.4634545 19.857933,9.4189992 19.382947,9.0453762 Z M 15.883394,9.3076336 C 15.9471,9.204549 15.739842,8.9860642 15.422809,8.8221193 15.105774,8.6581743 14.662412,8.2901557 14.437558,8.0043005 l -0.408825,-0.519738 0,0.5995021 c 0,0.9110382 1.45469,1.8707346 1.854661,1.2235667 z m 8.200405,-0.4977644 c 0.08855,-0.2307282 -0.04331,-0.2887882 -0.615307,-0.2709461 -0.414536,0.012899 -0.559406,0.063261 -0.336455,0.1168841 0.215348,0.051787 0.475231,0.1737231 0.577523,0.270945 0.240554,0.2286373 0.241795,0.2282485 0.374239,-0.116883 z M 16.478961,8.5212381 c -0.112059,-0.1813269 -1.765382,-1.179645 -1.953611,-1.179645 -0.341913,0 0.396997,0.8304921 1.026644,1.1538884 0.698209,0.358608 1.140272,0.3708904 0.926967,0.025766 z m 4.381128,0.1176761 C 21.15592,8.2824583 20.962962,7.8320778 20.33936,7.4234781 19.842068,7.0976379 19.821003,7.1027487 19.378974,7.6564454 l -0.451942,0.5661149 0.438458,0.3382429 c 0.530341,0.4091288 1.191214,0.4436667 1.494599,0.078099 z m 1.500394,-0.4076261 c 0.374935,-0.2811187 0.3744,-0.2948558 -0.0401,-1.0277908 C 22.089322,6.7949199 21.673011,6.2908639 21.395246,6.0833715 20.905262,5.7173524 20.878411,5.7167976 20.493906,6.0647685 20.275934,6.2620294 20.097593,6.48192 20.097593,6.553413 c 0,0.1532956 1.61372,1.9255151 1.773456,1.9476414 0.06018,0.00835 0.280417,-0.1130666 0.489424,-0.2697709 z M 11.890322,7.7482 c 0.649859,-0.6498614 0.715859,-0.9510901 0.247745,-1.1307217 -0.214126,-0.082165 -0.483902,0.060788 -0.79312,0.4202717 -0.257738,0.2996391 -0.523175,0.4902363 -0.589861,0.4235522 -0.06669,-0.066692 0.08533,-0.3411392 0.337821,-0.6098986 0.470249,-0.5005582 1.565436,-0.6886902 1.565436,-0.2689132 0,0.1518208 0.09076,0.1444119 0.293654,-0.023972 0.436514,-0.362274 0.357012,-0.7837509 -0.146827,-0.7784096 -1.528801,0.016208 -2.691839,0.7256142 -2.691839,1.6419091 0,1.0093126 0.924211,1.1789588 1.776991,0.3261799 z M 16.495263,7.610504 C 16.112696,7.3505414 15.511341,7.0880836 15.158921,7.0272633 c -0.551829,-0.095231 -0.477733,-0.01652 0.533856,0.5671052 1.29948,0.7497255 1.899827,0.7617973 0.802486,0.016141 z M 9.7697747,7.635624 C 9.5530865,6.5020903 10.857298,5.584551 12.700997,5.5734499 13.655139,5.5676685 13.705553,5.5448939 13.353146,5.2783951 13.085658,5.0761106 12.668847,5.0175426 11.962117,5.0829344 10.595604,5.2093723 10.074223,5.43486 9.4597205,6.1651529 8.8608599,6.8768595 8.7846109,7.623936 9.2813093,7.9132355 9.7967078,8.2134282 9.8720448,8.1706104 9.7697747,7.6356235 Z M 14.590245,5.5984405 c 0.688742,-1.29221 0.852461,-2.7595449 0.307898,-2.7595449 -0.167865,0 -0.255312,0.080735 -0.194328,0.1794103 0.245488,0.3972076 -0.356817,2.2087965 -1.176248,3.5378754 -0.478073,0.775413 -0.865557,1.4675642 -0.861076,1.5381149 0.01913,0.3009435 1.36096,-1.4399451 1.923754,-2.4958557 z m 9.60433,2.249696 C 24.372062,7.6342767 24.353189,7.4018888 24.111308,6.8230136 23.715086,5.8747128 23.134289,5.2515782 22.200188,4.7725765 L 21.464116,4.3951227 21.243401,4.879536 c -0.196339,0.4309207 -0.154087,0.5404724 0.382617,0.9920823 0.331833,0.2792171 0.801785,0.8343096 1.044338,1.2335399 0.649744,1.0694423 1.079438,1.2788953 1.524212,0.7429761 z M 17.690033,7.4187082 c 0.0952,-0.2856045 -1.618058,-1.0561418 -2.345091,-1.0547026 -0.586367,0.00123 -0.540977,0.048579 0.641489,0.6700171 1.277464,0.671375 1.584899,0.740795 1.703602,0.3846855 z M 25.47017,7.3538872 C 25.765766,7.0272544 25.781098,6.8767447 25.580629,6.2693213 25.278958,5.3552445 24.192804,4.310343 23.117402,3.8996424 c -1.264729,-0.4830037 -2.104535,-0.00753 -0.881484,0.4991425 0.314684,0.1303483 0.87945,0.5442889 1.255031,0.9198708 0.616959,0.6169587 0.841765,1.0107675 1.182754,2.0718998 0.142604,0.443777 0.371191,0.4332535 0.796467,-0.036671 z M 10.008609,5.2796654 c 0.799662,-0.4686316 1.052807,-0.517941 2.297833,-0.4475919 1.35626,0.076637 1.378607,0.07063 0.728707,-0.1957173 C 12.230302,4.3065024 10.396064,4.4445534 9.5124535,4.9014847 8.8355839,5.2515076 8.1361839,6.2800386 8.2944969,6.6926006 8.3707969,6.8914432 8.5029899,6.8043784 8.7556989,6.3888243 8.950534,6.0684469 9.5143435,5.5693249 10.008609,5.2796654 Z m 8.282188,1.3155875 c 0.177316,-0.5319447 -2.682747,-1.3162513 -2.98956,-0.8198194 -0.06655,0.107674 0.03838,0.1969044 0.233159,0.1982901 0.194783,0.00145 0.794634,0.2142753 1.333,0.4730883 1.035076,0.4976006 1.297881,0.525007 1.423401,0.148441 z M 25.968438,5.2295431 C 25.321073,4.0038324 23.895118,3.0306505 22.767316,3.0448558 l -0.809899,0.010215 0.993667,0.3822914 c 1.27158,0.489212 2.538852,1.574113 2.852767,2.4422284 0.169564,0.4689266 0.308207,0.6158916 0.44858,0.4755178 0.140375,-0.1403727 0.05261,-0.4882424 -0.283993,-1.1255497 z M 18.882154,5.7680614 C 19.108541,5.4055577 19.068743,5.3430201 18.446108,5.0828664 17.697026,4.7698799 16.044306,4.7038753 15.624094,4.9701621 c -0.180414,0.1143303 0.0062,0.2101538 0.587311,0.3015441 0.468469,0.073681 1.1601,0.3015601 1.536956,0.5064075 0.859842,0.4673803 0.835496,0.4675953 1.133793,-0.010025 z M 9.8057888,4.4894402 c 0.8911902,-0.3646285 3.2004952,-0.422049 3.8119972,-0.094778 0.264014,0.1412962 0.410947,0.1488953 0.410947,0.021245 0,-0.2883816 -1.336729,-0.9208987 -2.276916,-1.0773986 C 9.9575079,3.0398367 8.1546219,4.0020719 8.1566029,5.2573435 l 0.001,0.6159723 0.439511,-0.5345812 c 0.24173,-0.2940214 0.7856465,-0.676204 1.2087019,-0.8492971 z m 9.9002742,0.1086599 c 0,-0.4923605 -2.737684,-0.9946369 -3.605734,-0.6615352 -0.605334,0.2322874 -0.29592,0.4685551 0.62024,0.4736132 0.51145,0.00282 1.282294,0.1667464 1.712988,0.3642738 0.738734,0.3388008 1.272506,0.2648274 1.272506,-0.1763518 z m 0.391539,-0.8946504 c 0,-0.3763357 -0.663154,-0.6154953 -1.865832,-0.6728942 -1.412898,-0.067432 -1.736958,-0.026608 -2.142371,0.269829 -0.318819,0.2331259 -0.197301,0.2653301 0.990376,0.2624691 0.787177,-0.00188 1.640561,0.1212642 2.038978,0.2942607 0.746546,0.3241627 0.978849,0.2876948 0.978849,-0.1536646 z M 13.586391,3.3613751 c -0.564119,-0.4618389 -1.94954,-0.9140319 -2.800396,-0.9140319 -0.572558,0 -1.4670267,0.4227827 -1.836604,0.8680982 -0.2304451,0.2776674 -0.1881211,0.278885 0.4484534,0.012901 0.9415196,-0.3933912 2.3603246,-0.3578773 3.5541526,0.088973 1.258634,0.4710988 1.276257,0.4695454 0.634394,-0.055942 z M 13.762266,2.8689272 C 13.363224,2.4279911 12.161303,2.0476845 11.265239,2.078831 10.69069,2.0988 10.726146,2.122626 11.532347,2.2583261 c 0.511277,0.086057 1.260097,0.3284885 1.664046,0.5387363 0.951968,0.4954767 0.948881,0.4950843 0.565873,0.071866 z m 6.726877,-0.010883 c 0,-0.5027119 -0.921123,-0.8022308 -2.467128,-0.8022308 -1.15228,0 -2.231353,0.28356 -2.231353,0.5863578 0,0.072578 0.682749,0.092816 1.517219,0.044963 1.091897,-0.062607 1.709296,-0.00309 2.202411,0.2121749 0.909614,0.3971672 0.978851,0.3942485 0.978851,-0.041268 z M 13.930846,2.251583 C 13.735962,2.0362355 13.347898,1.8623522 13.068483,1.8651768 c -0.452962,0.00457 -0.423151,0.0453 0.275053,0.3756921 1.003327,0.474781 1.007354,0.4748535 0.58731,0.01075 z"
     id="path4145"
     inkscape:connector-curvature="0" />
</svg>
