<?xml version="1.0" standalone="no"?>
<!DOCTYPE svg PUBLIC "-//W3C//DTD SVG 20010904//EN"
 "http://www.w3.org/TR/2001/REC-SVG-20010904/DTD/svg10.dtd">
<svg version="1.0" xmlns="http://www.w3.org/2000/svg"
 width="900.000000pt" height="900.000000pt" viewBox="0 0 900.000000 900.000000"
 preserveAspectRatio="xMidYMid meet">
<metadata>
Created by potrace 1.11, written by Peter Selinger 2001-2013
</metadata>
<g transform="translate(0.000000,900.000000) scale(0.100000,-0.100000)"
fill="#000000" stroke="none">
<path d="M4465 8826 c-33 -18 -181 -96 -330 -173 -148 -77 -468 -244 -710
-370 -242 -127 -516 -269 -610 -318 -93 -48 -201 -105 -240 -125 -62 -34 -240
-127 -650 -340 -323 -168 -599 -312 -825 -430 -135 -71 -362 -189 -505 -264
-371 -193 -347 -176 -343 -234 l3 -47 96 -50 c53 -27 103 -55 110 -61 8 -6 77
-44 154 -84 138 -72 265 -138 480 -250 61 -32 166 -87 235 -123 181 -94 1033
-538 1180 -614 69 -36 166 -87 215 -113 100 -53 133 -70 825 -430 778 -405
884 -461 898 -474 15 -14 44 -162 66 -331 17 -128 22 -465 7 -465 -5 0 -168
88 -362 196 -799 443 -915 507 -1154 639 -137 76 -268 148 -290 160 -22 12
-161 90 -310 172 -148 82 -362 201 -475 263 -113 62 -279 154 -370 205 -91 50
-196 109 -235 130 -88 48 -485 267 -710 393 -93 52 -174 98 -179 102 -4 5 5
15 22 24 24 12 31 24 37 62 3 25 4 48 1 51 -3 3 -60 -25 -128 -63 l-123 -69
-3 -42 c-4 -51 -14 -43 273 -201 110 -60 315 -173 455 -252 140 -78 496 -276
790 -440 294 -164 573 -320 620 -347 47 -27 112 -64 145 -82 289 -158 407
-229 562 -336 98 -68 235 -163 306 -212 70 -48 163 -113 207 -143 44 -30 165
-113 269 -185 105 -71 193 -137 196 -146 32 -92 63 -569 36 -569 -9 0 -245
162 -798 549 -67 47 -157 110 -200 140 -43 30 -159 111 -258 180 -201 140
-836 581 -1195 831 -439 305 -432 300 -426 324 20 71 21 68 -10 60 -16 -4 -67
-19 -114 -33 l-85 -27 -3 -64 -2 -65 136 -95 c75 -52 136 -99 136 -105 0 -5
-29 -20 -64 -33 -34 -13 -68 -28 -75 -33 -17 -15 -50 -131 -69 -244 -19 -115
-14 -307 9 -391 8 -29 12 -56 8 -61 -3 -5 -75 -29 -158 -54 l-153 -44 -1 -35
c-1 -19 -1 -41 0 -48 3 -16 101 -110 194 -185 35 -29 120 -97 188 -152 68 -55
151 -122 184 -150 33 -27 81 -67 105 -87 113 -92 257 -212 280 -232 14 -11 61
-50 105 -86 44 -36 102 -85 130 -109 65 -56 84 -73 180 -151 44 -35 82 -67 85
-70 3 -4 73 -62 155 -130 83 -69 159 -132 170 -141 30 -26 405 -339 456 -381
24 -20 155 -129 290 -241 l246 -205 6 -59 c4 -32 12 -111 19 -176 9 -91 9
-152 1 -267 -7 -83 -15 -155 -18 -160 -7 -11 -45 20 -305 256 -80 72 -210 189
-291 260 -80 71 -205 183 -279 249 -73 66 -156 140 -185 165 -54 47 -602 537
-1383 1238 l-273 244 16 25 c9 14 15 26 13 28 -2 1 -27 -8 -55 -21 l-53 -23 0
-53 0 -54 168 -151 c92 -83 176 -160 187 -170 11 -10 65 -58 120 -108 55 -49
150 -134 210 -190 244 -224 523 -481 575 -529 105 -98 880 -812 1244 -1146
319 -293 361 -330 371 -326 6 3 71 31 145 64 74 32 223 98 330 145 107 46 220
96 250 110 30 14 91 41 135 60 71 31 82 39 102 78 38 75 72 205 78 302 9 140
5 133 70 131 30 -1 55 3 55 8 0 5 5 6 11 2 29 -18 -9 -277 -56 -388 -7 -16 -5
-17 16 -11 13 4 53 22 89 39 64 31 65 33 92 101 37 94 59 196 66 307 l7 92 48
-3 c34 -2 47 1 47 11 0 10 3 9 10 -2 9 -13 10 -13 10 0 0 13 1 13 10 0 25 -39
-8 -278 -51 -363 -11 -21 -15 -37 -9 -37 6 0 66 24 133 54 198 88 456 201 707
311 129 57 359 158 510 225 151 67 361 159 465 205 105 46 255 112 335 147 80
36 241 107 359 159 118 52 332 146 475 209 l261 115 28 75 c87 227 100 515 33
760 -13 47 -29 86 -37 88 -8 3 -70 31 -138 63 -68 33 -125 59 -127 59 -2 0
-45 20 -95 45 -51 25 -98 45 -106 45 -8 0 -28 7 -45 16 -28 14 -32 15 -40 1
-4 -9 -104 -68 -221 -133 -116 -64 -232 -128 -257 -142 -25 -13 -112 -62 -195
-107 -82 -45 -190 -105 -240 -132 -49 -27 -121 -67 -160 -88 -38 -21 -116 -64
-173 -96 -57 -33 -105 -59 -107 -59 -2 0 -77 -41 -167 -91 -281 -158 -420
-234 -533 -294 -93 -50 -138 -76 -167 -96 -14 -11 -29 -19 -33 -19 -4 0 -80
-40 -169 -89 -88 -49 -264 -146 -390 -215 -126 -70 -233 -123 -238 -118 -14
14 -25 253 -17 362 11 146 44 312 66 328 21 16 -13 -3 843 462 2215 1205 2228
1212 2266 1243 25 21 34 36 34 58 0 34 -16 69 -30 69 -17 0 -140 60 -140 68 0
4 44 31 98 60 53 29 133 72 177 96 44 25 175 96 290 159 237 129 227 119 264
267 57 229 50 514 -19 769 l-23 83 -76 35 c-42 19 -121 54 -176 78 -293 126
-559 245 -566 252 -5 5 87 96 203 203 116 107 219 202 228 211 10 9 84 77 166
151 188 171 198 182 223 245 68 174 64 407 -10 648 -12 39 -25 74 -29 78 -4 4
-72 25 -151 46 -79 21 -295 80 -479 130 -2518 688 -3341 911 -3357 911 -10 0
-45 -15 -78 -34z m3739 -1492 c6 -24 4 -31 -9 -31 -23 0 -39 45 -24 64 15 17
25 7 33 -33z m-160 -106 c10 -39 7 -70 -6 -66 -17 6 -33 52 -25 72 9 23 24 20
31 -6z m-146 -155 c8 -34 7 -52 -1 -61 -8 -11 -14 -7 -28 20 -19 34 -24 70
-12 81 17 18 32 3 41 -40z m151 -1625 c17 -71 14 -101 -14 -121 -29 -21 -32
-17 -55 74 l-18 68 32 19 c17 11 34 17 37 13 4 -3 11 -27 18 -53z m-324 -129
c7 -19 14 -52 17 -74 5 -37 3 -41 -27 -55 l-32 -16 -16 62 c-22 82 -21 99 6
112 31 15 39 11 52 -29z m-2229 -276 c13 -30 13 -40 3 -60 -7 -12 -15 -23 -18
-23 -3 0 -14 19 -23 42 -17 39 -17 43 -1 60 9 10 18 18 20 18 2 0 11 -16 19
-37z m-186 -201 c0 -23 -4 -31 -12 -26 -8 5 -9 2 -5 -9 14 -37 -6 -14 -24 29
-20 44 -20 46 -3 65 18 20 18 20 31 -3 7 -13 12 -38 13 -56z m-195 -132 c18
-54 13 -90 -13 -90 -12 0 -23 17 -34 52 -16 48 -16 53 -1 70 24 27 30 23 48
-32z m-3600 -473 c17 -14 17 -17 -3 -98 -12 -47 -22 -93 -22 -103 0 -16 -4
-14 -21 8 -20 26 -21 31 -9 104 18 110 20 114 55 89z m111 -46 c5 -4 81 -46
169 -91 211 -110 220 -115 220 -126 0 -13 -38 -188 -41 -193 -2 -2 -28 13 -58
33 -30 20 -59 36 -65 36 -6 0 -11 4 -11 8 0 5 -17 16 -37 26 -21 10 -61 33
-89 51 -28 19 -63 37 -78 41 -14 3 -31 15 -37 26 -8 15 -13 17 -25 7 -12 -9
-14 -6 -14 23 0 36 18 147 27 161 6 10 27 9 39 -2z m3833 -198 c19 -76 23
-130 9 -130 -7 0 -23 -3 -34 -7 -19 -6 -23 0 -38 58 -21 84 -21 83 12 100 38
21 40 20 51 -21z m-3325 -69 c21 -8 20 -31 -6 -144 -14 -57 -24 -85 -26 -71
-3 19 -6 21 -13 10 -13 -20 -12 70 2 148 11 64 14 68 43 57z m-643 -202 c22
-131 47 -261 54 -283 4 -11 3 -19 -2 -19 -23 1 -58 48 -81 108 -20 55 -26 90
-30 196 l-4 129 23 -17 c20 -13 27 -33 40 -114z m3654 101 c4 -16 8 -37 10
-47 2 -11 -1 -28 -6 -38 -13 -24 -49 -61 -49 -50 0 4 -7 28 -15 54 -14 46 -13
49 11 78 32 37 42 38 49 3z m-3572 -36 c4 3 18 -6 31 -20 14 -15 32 -27 40
-27 8 0 21 -6 28 -13 7 -6 38 -25 68 -40 66 -34 90 -48 108 -64 7 -7 35 -20
61 -30 l48 -17 12 -70 c17 -99 61 -306 72 -333 6 -16 5 -23 -4 -23 -6 1 -106
54 -222 120 l-210 118 -29 84 c-26 71 -31 102 -34 208 -4 108 -2 123 10 112 8
-6 18 -9 21 -5z m537 -352 c0 -11 7 -52 15 -90 9 -39 24 -110 34 -160 11 -49
23 -98 26 -107 9 -24 -6 -23 -37 2 -53 41 -104 284 -84 395 l8 38 19 -29 c10
-16 19 -38 19 -49z m3001 -1691 c4 -16 7 -46 8 -67 1 -34 -1 -37 -17 -28 -11
6 -23 6 -28 2 -17 -16 -62 -21 -67 -8 -4 9 -7 9 -15 -1 -7 -10 -12 -6 -22 18
-9 22 -10 34 -2 42 19 19 117 76 127 74 6 -2 13 -16 16 -32z m-336 -191 c4
-21 9 -47 12 -58 3 -16 2 -17 -6 -5 -10 13 -12 13 -21 0 -8 -13 -10 -12 -10 4
0 15 -3 16 -14 7 -11 -9 -17 -8 -29 4 -19 19 -27 19 -27 0 0 -9 -6 -12 -15 -9
-8 4 -15 1 -15 -5 0 -6 -3 -11 -8 -11 -8 0 -33 92 -27 99 2 1 14 -4 27 -13 30
-21 57 -20 88 4 34 27 38 25 45 -17z"/>
<path d="M5030 1660 c0 -5 5 -10 10 -10 6 0 10 5 10 10 0 6 -4 10 -10 10 -5 0
-10 -4 -10 -10z"/>
</g>
</svg>
