<?xml version="1.0" encoding="utf-8" standalone="no"?>
<!DOCTYPE svg PUBLIC "-//W3C//DTD SVG 1.1//EN"
  "http://www.w3.org/Graphics/SVG/1.1/DTD/svg11.dtd">
<!-- Created with matplotlib (https://matplotlib.org/) -->
<svg height="576pt" version="1.1" viewBox="0 0 576 576" width="576pt" xmlns="http://www.w3.org/2000/svg" xmlns:xlink="http://www.w3.org/1999/xlink">
 <defs>
  <style type="text/css">
*{stroke-linecap:butt;stroke-linejoin:round;}
  </style>
 </defs>
 <g id="figure_1">
  <g id="patch_1">
   <path d="M 0 576 
L 576 576 
L 576 0 
L 0 0 
z
" style="fill:#ffffff;"/>
  </g>
  <g id="axes_1">
   <g id="patch_2">
    <path d="M 72 157.824 
L 429.12 157.824 
L 429.12 69.12 
L 72 69.12 
z
" style="fill:#ffffff;"/>
   </g>
   <g id="matplotlib.axis_1">
    <g id="xtick_1">
     <g id="line2d_1">
      <defs>
       <path d="M 0 0 
L 0 3.5 
" id="m1c828825da" style="stroke:#000000;stroke-width:0.8;"/>
      </defs>
      <g>
       <use style="stroke:#000000;stroke-width:0.8;" x="425.191657" xlink:href="#m1c828825da" y="157.824"/>
      </g>
     </g>
     <g id="text_1">
      <!-- 0.8 -->
      <defs>
       <path d="M 31.78125 66.40625 
Q 24.171875 66.40625 20.328125 58.90625 
Q 16.5 51.421875 16.5 36.375 
Q 16.5 21.390625 20.328125 13.890625 
Q 24.171875 6.390625 31.78125 6.390625 
Q 39.453125 6.390625 43.28125 13.890625 
Q 47.125 21.390625 47.125 36.375 
Q 47.125 51.421875 43.28125 58.90625 
Q 39.453125 66.40625 31.78125 66.40625 
z
M 31.78125 74.21875 
Q 44.046875 74.21875 50.515625 64.515625 
Q 56.984375 54.828125 56.984375 36.375 
Q 56.984375 17.96875 50.515625 8.265625 
Q 44.046875 -1.421875 31.78125 -1.421875 
Q 19.53125 -1.421875 13.0625 8.265625 
Q 6.59375 17.96875 6.59375 36.375 
Q 6.59375 54.828125 13.0625 64.515625 
Q 19.53125 74.21875 31.78125 74.21875 
z
" id="DejaVuSans-48"/>
       <path d="M 10.6875 12.40625 
L 21 12.40625 
L 21 0 
L 10.6875 0 
z
" id="DejaVuSans-46"/>
       <path d="M 31.78125 34.625 
Q 24.75 34.625 20.71875 30.859375 
Q 16.703125 27.09375 16.703125 20.515625 
Q 16.703125 13.921875 20.71875 10.15625 
Q 24.75 6.390625 31.78125 6.390625 
Q 38.8125 6.390625 42.859375 10.171875 
Q 46.921875 13.96875 46.921875 20.515625 
Q 46.921875 27.09375 42.890625 30.859375 
Q 38.875 34.625 31.78125 34.625 
z
M 21.921875 38.8125 
Q 15.578125 40.375 12.03125 44.71875 
Q 8.5 49.078125 8.5 55.328125 
Q 8.5 64.0625 14.71875 69.140625 
Q 20.953125 74.21875 31.78125 74.21875 
Q 42.671875 74.21875 48.875 69.140625 
Q 55.078125 64.0625 55.078125 55.328125 
Q 55.078125 49.078125 51.53125 44.71875 
Q 48 40.375 41.703125 38.8125 
Q 48.828125 37.15625 52.796875 32.3125 
Q 56.78125 27.484375 56.78125 20.515625 
Q 56.78125 9.90625 50.3125 4.234375 
Q 43.84375 -1.421875 31.78125 -1.421875 
Q 19.734375 -1.421875 13.25 4.234375 
Q 6.78125 9.90625 6.78125 20.515625 
Q 6.78125 27.484375 10.78125 32.3125 
Q 14.796875 37.15625 21.921875 38.8125 
z
M 18.3125 54.390625 
Q 18.3125 48.734375 21.84375 45.5625 
Q 25.390625 42.390625 31.78125 42.390625 
Q 38.140625 42.390625 41.71875 45.5625 
Q 45.3125 48.734375 45.3125 54.390625 
Q 45.3125 60.0625 41.71875 63.234375 
Q 38.140625 66.40625 31.78125 66.40625 
Q 25.390625 66.40625 21.84375 63.234375 
Q 18.3125 60.0625 18.3125 54.390625 
z
" id="DejaVuSans-56"/>
      </defs>
      <g transform="translate(417.240094 172.422438)scale(0.1 -0.1)">
       <use xlink:href="#DejaVuSans-48"/>
       <use x="63.623047" xlink:href="#DejaVuSans-46"/>
       <use x="95.410156" xlink:href="#DejaVuSans-56"/>
      </g>
     </g>
    </g>
    <g id="xtick_2">
     <g id="line2d_2">
      <g>
       <use style="stroke:#000000;stroke-width:0.8;" x="383.31444" xlink:href="#m1c828825da" y="157.824"/>
      </g>
     </g>
     <g id="text_2">
      <!-- 1.0 -->
      <defs>
       <path d="M 12.40625 8.296875 
L 28.515625 8.296875 
L 28.515625 63.921875 
L 10.984375 60.40625 
L 10.984375 69.390625 
L 28.421875 72.90625 
L 38.28125 72.90625 
L 38.28125 8.296875 
L 54.390625 8.296875 
L 54.390625 0 
L 12.40625 0 
z
" id="DejaVuSans-49"/>
      </defs>
      <g transform="translate(375.362877 172.422438)scale(0.1 -0.1)">
       <use xlink:href="#DejaVuSans-49"/>
       <use x="63.623047" xlink:href="#DejaVuSans-46"/>
       <use x="95.410156" xlink:href="#DejaVuSans-48"/>
      </g>
     </g>
    </g>
    <g id="xtick_3">
     <g id="line2d_3">
      <g>
       <use style="stroke:#000000;stroke-width:0.8;" x="341.437223" xlink:href="#m1c828825da" y="157.824"/>
      </g>
     </g>
     <g id="text_3">
      <!-- 1.2 -->
      <defs>
       <path d="M 19.1875 8.296875 
L 53.609375 8.296875 
L 53.609375 0 
L 7.328125 0 
L 7.328125 8.296875 
Q 12.9375 14.109375 22.625 23.890625 
Q 32.328125 33.6875 34.8125 36.53125 
Q 39.546875 41.84375 41.421875 45.53125 
Q 43.3125 49.21875 43.3125 52.78125 
Q 43.3125 58.59375 39.234375 62.25 
Q 35.15625 65.921875 28.609375 65.921875 
Q 23.96875 65.921875 18.8125 64.3125 
Q 13.671875 62.703125 7.8125 59.421875 
L 7.8125 69.390625 
Q 13.765625 71.78125 18.9375 73 
Q 24.125 74.21875 28.421875 74.21875 
Q 39.75 74.21875 46.484375 68.546875 
Q 53.21875 62.890625 53.21875 53.421875 
Q 53.21875 48.921875 51.53125 44.890625 
Q 49.859375 40.875 45.40625 35.40625 
Q 44.1875 33.984375 37.640625 27.21875 
Q 31.109375 20.453125 19.1875 8.296875 
z
" id="DejaVuSans-50"/>
      </defs>
      <g transform="translate(333.485661 172.422438)scale(0.1 -0.1)">
       <use xlink:href="#DejaVuSans-49"/>
       <use x="63.623047" xlink:href="#DejaVuSans-46"/>
       <use x="95.410156" xlink:href="#DejaVuSans-50"/>
      </g>
     </g>
    </g>
    <g id="xtick_4">
     <g id="line2d_4">
      <g>
       <use style="stroke:#000000;stroke-width:0.8;" x="299.560006" xlink:href="#m1c828825da" y="157.824"/>
      </g>
     </g>
     <g id="text_4">
      <!-- 1.4 -->
      <defs>
       <path d="M 37.796875 64.3125 
L 12.890625 25.390625 
L 37.796875 25.390625 
z
M 35.203125 72.90625 
L 47.609375 72.90625 
L 47.609375 25.390625 
L 58.015625 25.390625 
L 58.015625 17.1875 
L 47.609375 17.1875 
L 47.609375 0 
L 37.796875 0 
L 37.796875 17.1875 
L 4.890625 17.1875 
L 4.890625 26.703125 
z
" id="DejaVuSans-52"/>
      </defs>
      <g transform="translate(291.608444 172.422438)scale(0.1 -0.1)">
       <use xlink:href="#DejaVuSans-49"/>
       <use x="63.623047" xlink:href="#DejaVuSans-46"/>
       <use x="95.410156" xlink:href="#DejaVuSans-52"/>
      </g>
     </g>
    </g>
    <g id="xtick_5">
     <g id="line2d_5">
      <g>
       <use style="stroke:#000000;stroke-width:0.8;" x="257.68279" xlink:href="#m1c828825da" y="157.824"/>
      </g>
     </g>
     <g id="text_5">
      <!-- 1.6 -->
      <defs>
       <path d="M 33.015625 40.375 
Q 26.375 40.375 22.484375 35.828125 
Q 18.609375 31.296875 18.609375 23.390625 
Q 18.609375 15.53125 22.484375 10.953125 
Q 26.375 6.390625 33.015625 6.390625 
Q 39.65625 6.390625 43.53125 10.953125 
Q 47.40625 15.53125 47.40625 23.390625 
Q 47.40625 31.296875 43.53125 35.828125 
Q 39.65625 40.375 33.015625 40.375 
z
M 52.59375 71.296875 
L 52.59375 62.3125 
Q 48.875 64.0625 45.09375 64.984375 
Q 41.3125 65.921875 37.59375 65.921875 
Q 27.828125 65.921875 22.671875 59.328125 
Q 17.53125 52.734375 16.796875 39.40625 
Q 19.671875 43.65625 24.015625 45.921875 
Q 28.375 48.1875 33.59375 48.1875 
Q 44.578125 48.1875 50.953125 41.515625 
Q 57.328125 34.859375 57.328125 23.390625 
Q 57.328125 12.15625 50.6875 5.359375 
Q 44.046875 -1.421875 33.015625 -1.421875 
Q 20.359375 -1.421875 13.671875 8.265625 
Q 6.984375 17.96875 6.984375 36.375 
Q 6.984375 53.65625 15.1875 63.9375 
Q 23.390625 74.21875 37.203125 74.21875 
Q 40.921875 74.21875 44.703125 73.484375 
Q 48.484375 72.75 52.59375 71.296875 
z
" id="DejaVuSans-54"/>
      </defs>
      <g transform="translate(249.731227 172.422438)scale(0.1 -0.1)">
       <use xlink:href="#DejaVuSans-49"/>
       <use x="63.623047" xlink:href="#DejaVuSans-46"/>
       <use x="95.410156" xlink:href="#DejaVuSans-54"/>
      </g>
     </g>
    </g>
    <g id="xtick_6">
     <g id="line2d_6">
      <g>
       <use style="stroke:#000000;stroke-width:0.8;" x="215.805573" xlink:href="#m1c828825da" y="157.824"/>
      </g>
     </g>
     <g id="text_6">
      <!-- 1.8 -->
      <g transform="translate(207.85401 172.422438)scale(0.1 -0.1)">
       <use xlink:href="#DejaVuSans-49"/>
       <use x="63.623047" xlink:href="#DejaVuSans-46"/>
       <use x="95.410156" xlink:href="#DejaVuSans-56"/>
      </g>
     </g>
    </g>
    <g id="xtick_7">
     <g id="line2d_7">
      <g>
       <use style="stroke:#000000;stroke-width:0.8;" x="173.928356" xlink:href="#m1c828825da" y="157.824"/>
      </g>
     </g>
     <g id="text_7">
      <!-- 2.0 -->
      <g transform="translate(165.976794 172.422438)scale(0.1 -0.1)">
       <use xlink:href="#DejaVuSans-50"/>
       <use x="63.623047" xlink:href="#DejaVuSans-46"/>
       <use x="95.410156" xlink:href="#DejaVuSans-48"/>
      </g>
     </g>
    </g>
    <g id="xtick_8">
     <g id="line2d_8">
      <g>
       <use style="stroke:#000000;stroke-width:0.8;" x="132.051139" xlink:href="#m1c828825da" y="157.824"/>
      </g>
     </g>
     <g id="text_8">
      <!-- 2.2 -->
      <g transform="translate(124.099577 172.422438)scale(0.1 -0.1)">
       <use xlink:href="#DejaVuSans-50"/>
       <use x="63.623047" xlink:href="#DejaVuSans-46"/>
       <use x="95.410156" xlink:href="#DejaVuSans-50"/>
      </g>
     </g>
    </g>
    <g id="xtick_9">
     <g id="line2d_9">
      <g>
       <use style="stroke:#000000;stroke-width:0.8;" x="90.173923" xlink:href="#m1c828825da" y="157.824"/>
      </g>
     </g>
     <g id="text_9">
      <!-- 2.4 -->
      <g transform="translate(82.22236 172.422438)scale(0.1 -0.1)">
       <use xlink:href="#DejaVuSans-50"/>
       <use x="63.623047" xlink:href="#DejaVuSans-46"/>
       <use x="95.410156" xlink:href="#DejaVuSans-52"/>
      </g>
     </g>
    </g>
    <g id="text_10">
     <!-- ppm -->
     <defs>
      <path d="M 18.109375 8.203125 
L 18.109375 -20.796875 
L 9.078125 -20.796875 
L 9.078125 54.6875 
L 18.109375 54.6875 
L 18.109375 46.390625 
Q 20.953125 51.265625 25.265625 53.625 
Q 29.59375 56 35.59375 56 
Q 45.5625 56 51.78125 48.09375 
Q 58.015625 40.1875 58.015625 27.296875 
Q 58.015625 14.40625 51.78125 6.484375 
Q 45.5625 -1.421875 35.59375 -1.421875 
Q 29.59375 -1.421875 25.265625 0.953125 
Q 20.953125 3.328125 18.109375 8.203125 
z
M 48.6875 27.296875 
Q 48.6875 37.203125 44.609375 42.84375 
Q 40.53125 48.484375 33.40625 48.484375 
Q 26.265625 48.484375 22.1875 42.84375 
Q 18.109375 37.203125 18.109375 27.296875 
Q 18.109375 17.390625 22.1875 11.75 
Q 26.265625 6.109375 33.40625 6.109375 
Q 40.53125 6.109375 44.609375 11.75 
Q 48.6875 17.390625 48.6875 27.296875 
z
" id="DejaVuSans-112"/>
      <path d="M 52 44.1875 
Q 55.375 50.25 60.0625 53.125 
Q 64.75 56 71.09375 56 
Q 79.640625 56 84.28125 50.015625 
Q 88.921875 44.046875 88.921875 33.015625 
L 88.921875 0 
L 79.890625 0 
L 79.890625 32.71875 
Q 79.890625 40.578125 77.09375 44.375 
Q 74.3125 48.1875 68.609375 48.1875 
Q 61.625 48.1875 57.5625 43.546875 
Q 53.515625 38.921875 53.515625 30.90625 
L 53.515625 0 
L 44.484375 0 
L 44.484375 32.71875 
Q 44.484375 40.625 41.703125 44.40625 
Q 38.921875 48.1875 33.109375 48.1875 
Q 26.21875 48.1875 22.15625 43.53125 
Q 18.109375 38.875 18.109375 30.90625 
L 18.109375 0 
L 9.078125 0 
L 9.078125 54.6875 
L 18.109375 54.6875 
L 18.109375 46.1875 
Q 21.1875 51.21875 25.484375 53.609375 
Q 29.78125 56 35.6875 56 
Q 41.65625 56 45.828125 52.96875 
Q 50 49.953125 52 44.1875 
z
" id="DejaVuSans-109"/>
     </defs>
     <g transform="translate(239.34125 186.100563)scale(0.1 -0.1)">
      <use xlink:href="#DejaVuSans-112"/>
      <use x="63.476562" xlink:href="#DejaVuSans-112"/>
      <use x="126.953125" xlink:href="#DejaVuSans-109"/>
     </g>
    </g>
   </g>
   <g id="matplotlib.axis_2">
    <g id="ytick_1">
     <g id="line2d_10">
      <defs>
       <path d="M 0 0 
L -3.5 0 
" id="m0d5b9ba9a5" style="stroke:#000000;stroke-width:0.8;"/>
      </defs>
      <g>
       <use style="stroke:#000000;stroke-width:0.8;" x="72" xlink:href="#m0d5b9ba9a5" y="153.820046"/>
      </g>
     </g>
     <g id="text_11">
      <!-- 0 -->
      <g transform="translate(58.6375 157.619265)scale(0.1 -0.1)">
       <use xlink:href="#DejaVuSans-48"/>
      </g>
     </g>
    </g>
    <g id="ytick_2">
     <g id="line2d_11">
      <g>
       <use style="stroke:#000000;stroke-width:0.8;" x="72" xlink:href="#m0d5b9ba9a5" y="117.735818"/>
      </g>
     </g>
     <g id="text_12">
      <!-- 1 -->
      <g transform="translate(58.6375 121.535037)scale(0.1 -0.1)">
       <use xlink:href="#DejaVuSans-49"/>
      </g>
     </g>
    </g>
    <g id="ytick_3">
     <g id="line2d_12">
      <g>
       <use style="stroke:#000000;stroke-width:0.8;" x="72" xlink:href="#m0d5b9ba9a5" y="81.65159"/>
      </g>
     </g>
     <g id="text_13">
      <!-- 2 -->
      <g transform="translate(58.6375 85.450809)scale(0.1 -0.1)">
       <use xlink:href="#DejaVuSans-50"/>
      </g>
     </g>
    </g>
    <g id="text_14">
     <!-- a.u. -->
     <defs>
      <path d="M 34.28125 27.484375 
Q 23.390625 27.484375 19.1875 25 
Q 14.984375 22.515625 14.984375 16.5 
Q 14.984375 11.71875 18.140625 8.90625 
Q 21.296875 6.109375 26.703125 6.109375 
Q 34.1875 6.109375 38.703125 11.40625 
Q 43.21875 16.703125 43.21875 25.484375 
L 43.21875 27.484375 
z
M 52.203125 31.203125 
L 52.203125 0 
L 43.21875 0 
L 43.21875 8.296875 
Q 40.140625 3.328125 35.546875 0.953125 
Q 30.953125 -1.421875 24.3125 -1.421875 
Q 15.921875 -1.421875 10.953125 3.296875 
Q 6 8.015625 6 15.921875 
Q 6 25.140625 12.171875 29.828125 
Q 18.359375 34.515625 30.609375 34.515625 
L 43.21875 34.515625 
L 43.21875 35.40625 
Q 43.21875 41.609375 39.140625 45 
Q 35.0625 48.390625 27.6875 48.390625 
Q 23 48.390625 18.546875 47.265625 
Q 14.109375 46.140625 10.015625 43.890625 
L 10.015625 52.203125 
Q 14.9375 54.109375 19.578125 55.046875 
Q 24.21875 56 28.609375 56 
Q 40.484375 56 46.34375 49.84375 
Q 52.203125 43.703125 52.203125 31.203125 
z
" id="DejaVuSans-97"/>
      <path d="M 8.5 21.578125 
L 8.5 54.6875 
L 17.484375 54.6875 
L 17.484375 21.921875 
Q 17.484375 14.15625 20.5 10.265625 
Q 23.53125 6.390625 29.59375 6.390625 
Q 36.859375 6.390625 41.078125 11.03125 
Q 45.3125 15.671875 45.3125 23.6875 
L 45.3125 54.6875 
L 54.296875 54.6875 
L 54.296875 0 
L 45.3125 0 
L 45.3125 8.40625 
Q 42.046875 3.421875 37.71875 1 
Q 33.40625 -1.421875 27.6875 -1.421875 
Q 18.265625 -1.421875 13.375 4.4375 
Q 8.5 10.296875 8.5 21.578125 
z
M 31.109375 56 
z
" id="DejaVuSans-117"/>
     </defs>
     <g transform="translate(52.557813 122.882937)rotate(-90)scale(0.1 -0.1)">
      <use xlink:href="#DejaVuSans-97"/>
      <use x="61.279297" xlink:href="#DejaVuSans-46"/>
      <use x="93.066406" xlink:href="#DejaVuSans-117"/>
      <use x="156.445312" xlink:href="#DejaVuSans-46"/>
     </g>
    </g>
    <g id="text_15">
     <!-- 1e9 -->
     <defs>
      <path d="M 56.203125 29.59375 
L 56.203125 25.203125 
L 14.890625 25.203125 
Q 15.484375 15.921875 20.484375 11.0625 
Q 25.484375 6.203125 34.421875 6.203125 
Q 39.59375 6.203125 44.453125 7.46875 
Q 49.3125 8.734375 54.109375 11.28125 
L 54.109375 2.78125 
Q 49.265625 0.734375 44.1875 -0.34375 
Q 39.109375 -1.421875 33.890625 -1.421875 
Q 20.796875 -1.421875 13.15625 6.1875 
Q 5.515625 13.8125 5.515625 26.8125 
Q 5.515625 40.234375 12.765625 48.109375 
Q 20.015625 56 32.328125 56 
Q 43.359375 56 49.78125 48.890625 
Q 56.203125 41.796875 56.203125 29.59375 
z
M 47.21875 32.234375 
Q 47.125 39.59375 43.09375 43.984375 
Q 39.0625 48.390625 32.421875 48.390625 
Q 24.90625 48.390625 20.390625 44.140625 
Q 15.875 39.890625 15.1875 32.171875 
z
" id="DejaVuSans-101"/>
      <path d="M 10.984375 1.515625 
L 10.984375 10.5 
Q 14.703125 8.734375 18.5 7.8125 
Q 22.3125 6.890625 25.984375 6.890625 
Q 35.75 6.890625 40.890625 13.453125 
Q 46.046875 20.015625 46.78125 33.40625 
Q 43.953125 29.203125 39.59375 26.953125 
Q 35.25 24.703125 29.984375 24.703125 
Q 19.046875 24.703125 12.671875 31.3125 
Q 6.296875 37.9375 6.296875 49.421875 
Q 6.296875 60.640625 12.9375 67.421875 
Q 19.578125 74.21875 30.609375 74.21875 
Q 43.265625 74.21875 49.921875 64.515625 
Q 56.59375 54.828125 56.59375 36.375 
Q 56.59375 19.140625 48.40625 8.859375 
Q 40.234375 -1.421875 26.421875 -1.421875 
Q 22.703125 -1.421875 18.890625 -0.6875 
Q 15.09375 0.046875 10.984375 1.515625 
z
M 30.609375 32.421875 
Q 37.25 32.421875 41.125 36.953125 
Q 45.015625 41.5 45.015625 49.421875 
Q 45.015625 57.28125 41.125 61.84375 
Q 37.25 66.40625 30.609375 66.40625 
Q 23.96875 66.40625 20.09375 61.84375 
Q 16.21875 57.28125 16.21875 49.421875 
Q 16.21875 41.5 20.09375 36.953125 
Q 23.96875 32.421875 30.609375 32.421875 
z
" id="DejaVuSans-57"/>
     </defs>
     <g transform="translate(72 66.12)scale(0.1 -0.1)">
      <use xlink:href="#DejaVuSans-49"/>
      <use x="63.623047" xlink:href="#DejaVuSans-101"/>
      <use x="125.146484" xlink:href="#DejaVuSans-57"/>
     </g>
    </g>
   </g>
   <g id="line2d_13">
    <path clip-path="url(#p195ce05a01)" d="M -1 153.729971 
L 0.974313 153.733176 
L 3.221904 153.681335 
L 6.59329 153.741065 
L 11.088472 153.750839 
L 21.202632 153.739401 
L 23.450223 153.740415 
L 26.821609 153.717495 
L 30.192996 153.701179 
L 39.183359 153.68926 
L 41.43095 153.553 
L 44.802337 153.72564 
L 49.297519 153.626906 
L 52.668905 153.633817 
L 69.525837 153.433297 
L 74.021019 153.214923 
L 76.26861 152.774236 
L 77.392406 151.450951 
L 78.516201 149.352782 
L 79.639997 148.340379 
L 80.763792 149.446872 
L 81.887588 149.650719 
L 83.011383 146.147901 
L 84.135179 143.708019 
L 85.258974 144.546599 
L 86.38277 147.84413 
L 87.506565 149.522564 
L 88.630361 148.277022 
L 89.754156 148.4181 
L 92.001747 152.344291 
L 93.125542 153.043462 
L 94.249338 153.135875 
L 95.373133 153.391837 
L 102.115906 153.673919 
L 104.363497 153.661341 
L 106.611088 153.727604 
L 126.839407 153.712689 
L 140.324953 153.367029 
L 143.696339 152.799192 
L 144.820135 152.513848 
L 145.94393 150.926445 
L 147.067726 148.077577 
L 148.191521 145.757377 
L 149.315317 145.448695 
L 150.439112 147.685907 
L 151.562908 148.958963 
L 152.686703 145.465186 
L 153.810498 142.881717 
L 154.934294 143.274774 
L 156.058089 146.167061 
L 157.181885 149.988912 
L 158.30568 152.28248 
L 159.429476 150.857496 
L 160.553271 149.199395 
L 161.677067 148.707742 
L 162.800862 149.317347 
L 165.048453 151.067702 
L 166.172249 152.256538 
L 167.296044 151.496297 
L 168.41984 150.057555 
L 169.543635 149.859021 
L 170.667431 150.935958 
L 171.791226 152.329193 
L 172.915022 152.994958 
L 175.162613 153.304653 
L 184.152976 153.613733 
L 189.771954 153.452654 
L 190.895749 153.347629 
L 192.019545 152.90978 
L 193.14334 151.819074 
L 194.267136 150.503726 
L 195.390931 149.607803 
L 196.514727 149.46854 
L 197.638522 149.773631 
L 198.762318 149.542527 
L 199.886113 148.881638 
L 201.009909 149.127137 
L 202.133704 150.005884 
L 203.2575 148.15171 
L 204.381295 148.334488 
L 205.505091 150.412981 
L 206.628886 153.358232 
L 207.752682 150.618927 
L 208.876477 148.36019 
L 210.000273 148.048904 
L 211.124068 149.337094 
L 212.247864 150.383056 
L 213.371659 147.541874 
L 214.495454 145.993024 
L 215.61925 147.397119 
L 216.743045 150.989759 
L 217.866841 149.588451 
L 218.990636 146.436902 
L 220.114432 146.025032 
L 221.238227 148.035609 
L 222.362023 150.741213 
L 223.485818 152.431708 
L 224.609614 152.889945 
L 225.733409 153.162797 
L 227.981 153.339423 
L 236.971364 153.65674 
L 247.085523 153.652287 
L 250.45691 153.634621 
L 259.447274 153.358971 
L 266.190047 152.068029 
L 267.313842 151.722164 
L 268.437638 151.521189 
L 269.561433 151.594963 
L 270.685229 151.531226 
L 271.809024 151.603173 
L 272.93282 151.927426 
L 274.056615 151.406868 
L 275.18041 149.210286 
L 276.304206 148.695419 
L 278.551797 152.156163 
L 279.675592 149.71773 
L 280.799388 148.532618 
L 281.923183 149.718185 
L 283.046979 152.575429 
L 284.170774 152.378626 
L 285.29457 151.324006 
L 286.418365 151.528688 
L 287.542161 152.403654 
L 289.789752 152.259246 
L 290.913547 151.855888 
L 292.037343 149.8206 
L 293.161138 149.770223 
L 294.284934 147.89227 
L 295.408729 144.050622 
L 297.65632 77.777016 
L 298.780116 73.152 
L 299.903911 100.27836 
L 301.027707 136.746764 
L 302.151502 149.458761 
L 303.275298 148.929568 
L 304.399093 151.060295 
L 305.522888 151.213642 
L 306.646684 152.822984 
L 307.770479 152.072606 
L 308.894275 153.093967 
L 310.01807 152.512292 
L 311.141866 153.24134 
L 312.265661 152.817796 
L 313.389457 153.296511 
L 314.513252 153.067826 
L 315.637048 153.291842 
L 316.760843 153.172118 
L 317.884639 153.343891 
L 329.122594 153.31231 
L 330.246389 153.119961 
L 332.49398 153.021412 
L 333.617776 152.728323 
L 334.741571 152.90022 
L 335.865366 152.100799 
L 336.989162 152.30736 
L 338.112957 150.28407 
L 339.236753 151.413372 
L 340.360548 138.26443 
L 341.484344 128.304341 
L 342.608139 134.088613 
L 343.731935 143.887479 
L 344.85573 130.557849 
L 345.979526 129.919325 
L 347.103321 142.593016 
L 348.227117 151.595905 
L 349.350912 150.482771 
L 350.474708 151.794104 
L 351.598503 151.975385 
L 352.722299 151.478352 
L 353.846094 151.578535 
L 354.96989 151.360375 
L 356.093685 149.121947 
L 357.217481 147.43989 
L 358.341276 147.90019 
L 359.465072 149.530662 
L 360.588867 149.187373 
L 361.712663 148.243501 
L 362.836458 149.155948 
L 363.960254 151.47426 
L 365.084049 152.708668 
L 366.207844 152.031736 
L 367.33164 152.274006 
L 368.455435 152.328891 
L 369.579231 152.855342 
L 370.703026 151.670943 
L 371.826822 152.358532 
L 372.950617 150.158765 
L 374.074413 150.5544 
L 375.198208 143.552137 
L 376.322004 126.653875 
L 377.445799 120.797418 
L 378.569595 129.172631 
L 379.69339 127.742474 
L 380.817186 123.287614 
L 381.940981 133.922241 
L 383.064777 149.633018 
L 384.188572 149.422316 
L 385.312368 151.627547 
L 386.436163 151.670193 
L 387.559959 152.28915 
L 388.683754 152.540561 
L 389.80755 152.567508 
L 390.931345 152.891581 
L 392.055141 152.78632 
L 393.178936 153.153773 
L 394.302732 152.961606 
L 395.426527 153.348244 
L 396.550322 153.117342 
L 397.674118 153.304646 
L 398.797913 153.182548 
L 399.921709 153.380101 
L 401.045504 153.2617 
L 402.1693 153.412884 
L 403.293095 153.345616 
L 406.664482 153.502139 
L 411.159664 153.475566 
L 412.283459 153.555748 
L 413.407255 153.486932 
L 414.53105 153.583117 
L 416.778641 153.592923 
L 421.273823 153.604655 
L 423.521414 153.625067 
L 425.769005 153.562842 
L 428.016596 153.629949 
L 433.635573 153.675487 
L 437.00696 153.645075 
L 441.502142 153.691581 
L 444.873528 153.688189 
L 453.863892 153.688492 
L 460.606665 153.738162 
L 462.854256 153.54761 
L 468.473233 153.742104 
L 472.968415 153.743974 
L 478.587393 153.72808 
L 494.320529 153.774713 
L 553.88169 153.67425 
L 556.129281 153.579119 
L 559.500667 153.774981 
L 562.872054 153.761975 
L 577 153.781411 
L 577 153.781411 
" style="fill:none;stroke:#1f77b4;stroke-linecap:square;"/>
   </g>
   <g id="patch_3">
    <path d="M 72 157.824 
L 72 69.12 
" style="fill:none;stroke:#000000;stroke-linecap:square;stroke-linejoin:miter;stroke-width:0.8;"/>
   </g>
   <g id="patch_4">
    <path d="M 429.12 157.824 
L 429.12 69.12 
" style="fill:none;stroke:#000000;stroke-linecap:square;stroke-linejoin:miter;stroke-width:0.8;"/>
   </g>
   <g id="patch_5">
    <path d="M 72 157.824 
L 429.12 157.824 
" style="fill:none;stroke:#000000;stroke-linecap:square;stroke-linejoin:miter;stroke-width:0.8;"/>
   </g>
   <g id="patch_6">
    <path d="M 72 69.12 
L 429.12 69.12 
" style="fill:none;stroke:#000000;stroke-linecap:square;stroke-linejoin:miter;stroke-width:0.8;"/>
   </g>
  </g>
  <g id="axes_2">
   <g id="patch_7">
    <path d="M 72 512.64 
L 429.12 512.64 
L 429.12 157.824 
L 72 157.824 
z
" style="fill:#ffffff;"/>
   </g>
   <g id="matplotlib.axis_3">
    <g id="xtick_10">
     <g id="line2d_14">
      <g>
       <use style="stroke:#000000;stroke-width:0.8;" x="425.191657" xlink:href="#m1c828825da" y="512.64"/>
      </g>
     </g>
     <g id="text_16">
      <!-- 0.8 -->
      <g transform="translate(417.240094 527.238438)scale(0.1 -0.1)">
       <use xlink:href="#DejaVuSans-48"/>
       <use x="63.623047" xlink:href="#DejaVuSans-46"/>
       <use x="95.410156" xlink:href="#DejaVuSans-56"/>
      </g>
     </g>
    </g>
    <g id="xtick_11">
     <g id="line2d_15">
      <g>
       <use style="stroke:#000000;stroke-width:0.8;" x="383.31444" xlink:href="#m1c828825da" y="512.64"/>
      </g>
     </g>
     <g id="text_17">
      <!-- 1.0 -->
      <g transform="translate(375.362877 527.238438)scale(0.1 -0.1)">
       <use xlink:href="#DejaVuSans-49"/>
       <use x="63.623047" xlink:href="#DejaVuSans-46"/>
       <use x="95.410156" xlink:href="#DejaVuSans-48"/>
      </g>
     </g>
    </g>
    <g id="xtick_12">
     <g id="line2d_16">
      <g>
       <use style="stroke:#000000;stroke-width:0.8;" x="341.437223" xlink:href="#m1c828825da" y="512.64"/>
      </g>
     </g>
     <g id="text_18">
      <!-- 1.2 -->
      <g transform="translate(333.485661 527.238438)scale(0.1 -0.1)">
       <use xlink:href="#DejaVuSans-49"/>
       <use x="63.623047" xlink:href="#DejaVuSans-46"/>
       <use x="95.410156" xlink:href="#DejaVuSans-50"/>
      </g>
     </g>
    </g>
    <g id="xtick_13">
     <g id="line2d_17">
      <g>
       <use style="stroke:#000000;stroke-width:0.8;" x="299.560006" xlink:href="#m1c828825da" y="512.64"/>
      </g>
     </g>
     <g id="text_19">
      <!-- 1.4 -->
      <g transform="translate(291.608444 527.238438)scale(0.1 -0.1)">
       <use xlink:href="#DejaVuSans-49"/>
       <use x="63.623047" xlink:href="#DejaVuSans-46"/>
       <use x="95.410156" xlink:href="#DejaVuSans-52"/>
      </g>
     </g>
    </g>
    <g id="xtick_14">
     <g id="line2d_18">
      <g>
       <use style="stroke:#000000;stroke-width:0.8;" x="257.68279" xlink:href="#m1c828825da" y="512.64"/>
      </g>
     </g>
     <g id="text_20">
      <!-- 1.6 -->
      <g transform="translate(249.731227 527.238438)scale(0.1 -0.1)">
       <use xlink:href="#DejaVuSans-49"/>
       <use x="63.623047" xlink:href="#DejaVuSans-46"/>
       <use x="95.410156" xlink:href="#DejaVuSans-54"/>
      </g>
     </g>
    </g>
    <g id="xtick_15">
     <g id="line2d_19">
      <g>
       <use style="stroke:#000000;stroke-width:0.8;" x="215.805573" xlink:href="#m1c828825da" y="512.64"/>
      </g>
     </g>
     <g id="text_21">
      <!-- 1.8 -->
      <g transform="translate(207.85401 527.238438)scale(0.1 -0.1)">
       <use xlink:href="#DejaVuSans-49"/>
       <use x="63.623047" xlink:href="#DejaVuSans-46"/>
       <use x="95.410156" xlink:href="#DejaVuSans-56"/>
      </g>
     </g>
    </g>
    <g id="xtick_16">
     <g id="line2d_20">
      <g>
       <use style="stroke:#000000;stroke-width:0.8;" x="173.928356" xlink:href="#m1c828825da" y="512.64"/>
      </g>
     </g>
     <g id="text_22">
      <!-- 2.0 -->
      <g transform="translate(165.976794 527.238438)scale(0.1 -0.1)">
       <use xlink:href="#DejaVuSans-50"/>
       <use x="63.623047" xlink:href="#DejaVuSans-46"/>
       <use x="95.410156" xlink:href="#DejaVuSans-48"/>
      </g>
     </g>
    </g>
    <g id="xtick_17">
     <g id="line2d_21">
      <g>
       <use style="stroke:#000000;stroke-width:0.8;" x="132.051139" xlink:href="#m1c828825da" y="512.64"/>
      </g>
     </g>
     <g id="text_23">
      <!-- 2.2 -->
      <g transform="translate(124.099577 527.238438)scale(0.1 -0.1)">
       <use xlink:href="#DejaVuSans-50"/>
       <use x="63.623047" xlink:href="#DejaVuSans-46"/>
       <use x="95.410156" xlink:href="#DejaVuSans-50"/>
      </g>
     </g>
    </g>
    <g id="xtick_18">
     <g id="line2d_22">
      <g>
       <use style="stroke:#000000;stroke-width:0.8;" x="90.173923" xlink:href="#m1c828825da" y="512.64"/>
      </g>
     </g>
     <g id="text_24">
      <!-- 2.4 -->
      <g transform="translate(82.22236 527.238438)scale(0.1 -0.1)">
       <use xlink:href="#DejaVuSans-50"/>
       <use x="63.623047" xlink:href="#DejaVuSans-46"/>
       <use x="95.410156" xlink:href="#DejaVuSans-52"/>
      </g>
     </g>
    </g>
    <g id="text_25">
     <!-- ppm -->
     <g transform="translate(239.34125 540.916563)scale(0.1 -0.1)">
      <use xlink:href="#DejaVuSans-112"/>
      <use x="63.476562" xlink:href="#DejaVuSans-112"/>
      <use x="126.953125" xlink:href="#DejaVuSans-109"/>
     </g>
    </g>
   </g>
   <g id="matplotlib.axis_4">
    <g id="ytick_4">
     <g id="line2d_23">
      <g>
       <use style="stroke:#000000;stroke-width:0.8;" x="72" xlink:href="#m0d5b9ba9a5" y="195.085386"/>
      </g>
     </g>
     <g id="text_26">
      <!-- 15 -->
      <defs>
       <path d="M 10.796875 72.90625 
L 49.515625 72.90625 
L 49.515625 64.59375 
L 19.828125 64.59375 
L 19.828125 46.734375 
Q 21.96875 47.46875 24.109375 47.828125 
Q 26.265625 48.1875 28.421875 48.1875 
Q 40.625 48.1875 47.75 41.5 
Q 54.890625 34.8125 54.890625 23.390625 
Q 54.890625 11.625 47.5625 5.09375 
Q 40.234375 -1.421875 26.90625 -1.421875 
Q 22.3125 -1.421875 17.546875 -0.640625 
Q 12.796875 0.140625 7.71875 1.703125 
L 7.71875 11.625 
Q 12.109375 9.234375 16.796875 8.0625 
Q 21.484375 6.890625 26.703125 6.890625 
Q 35.15625 6.890625 40.078125 11.328125 
Q 45.015625 15.765625 45.015625 23.390625 
Q 45.015625 31 40.078125 35.4375 
Q 35.15625 39.890625 26.703125 39.890625 
Q 22.75 39.890625 18.8125 39.015625 
Q 14.890625 38.140625 10.796875 36.28125 
z
" id="DejaVuSans-53"/>
      </defs>
      <g transform="translate(52.275 198.884605)scale(0.1 -0.1)">
       <use xlink:href="#DejaVuSans-49"/>
       <use x="63.623047" xlink:href="#DejaVuSans-53"/>
      </g>
     </g>
    </g>
    <g id="ytick_5">
     <g id="line2d_24">
      <g>
       <use style="stroke:#000000;stroke-width:0.8;" x="72" xlink:href="#m0d5b9ba9a5" y="249.70998"/>
      </g>
     </g>
     <g id="text_27">
      <!-- 20 -->
      <g transform="translate(52.275 253.509199)scale(0.1 -0.1)">
       <use xlink:href="#DejaVuSans-50"/>
       <use x="63.623047" xlink:href="#DejaVuSans-48"/>
      </g>
     </g>
    </g>
    <g id="ytick_6">
     <g id="line2d_25">
      <g>
       <use style="stroke:#000000;stroke-width:0.8;" x="72" xlink:href="#m0d5b9ba9a5" y="304.334574"/>
      </g>
     </g>
     <g id="text_28">
      <!-- 25 -->
      <g transform="translate(52.275 308.133793)scale(0.1 -0.1)">
       <use xlink:href="#DejaVuSans-50"/>
       <use x="63.623047" xlink:href="#DejaVuSans-53"/>
      </g>
     </g>
    </g>
    <g id="ytick_7">
     <g id="line2d_26">
      <g>
       <use style="stroke:#000000;stroke-width:0.8;" x="72" xlink:href="#m0d5b9ba9a5" y="358.959168"/>
      </g>
     </g>
     <g id="text_29">
      <!-- 30 -->
      <defs>
       <path d="M 40.578125 39.3125 
Q 47.65625 37.796875 51.625 33 
Q 55.609375 28.21875 55.609375 21.1875 
Q 55.609375 10.40625 48.1875 4.484375 
Q 40.765625 -1.421875 27.09375 -1.421875 
Q 22.515625 -1.421875 17.65625 -0.515625 
Q 12.796875 0.390625 7.625 2.203125 
L 7.625 11.71875 
Q 11.71875 9.328125 16.59375 8.109375 
Q 21.484375 6.890625 26.8125 6.890625 
Q 36.078125 6.890625 40.9375 10.546875 
Q 45.796875 14.203125 45.796875 21.1875 
Q 45.796875 27.640625 41.28125 31.265625 
Q 36.765625 34.90625 28.71875 34.90625 
L 20.21875 34.90625 
L 20.21875 43.015625 
L 29.109375 43.015625 
Q 36.375 43.015625 40.234375 45.921875 
Q 44.09375 48.828125 44.09375 54.296875 
Q 44.09375 59.90625 40.109375 62.90625 
Q 36.140625 65.921875 28.71875 65.921875 
Q 24.65625 65.921875 20.015625 65.03125 
Q 15.375 64.15625 9.8125 62.3125 
L 9.8125 71.09375 
Q 15.4375 72.65625 20.34375 73.4375 
Q 25.25 74.21875 29.59375 74.21875 
Q 40.828125 74.21875 47.359375 69.109375 
Q 53.90625 64.015625 53.90625 55.328125 
Q 53.90625 49.265625 50.4375 45.09375 
Q 46.96875 40.921875 40.578125 39.3125 
z
" id="DejaVuSans-51"/>
      </defs>
      <g transform="translate(52.275 362.758387)scale(0.1 -0.1)">
       <use xlink:href="#DejaVuSans-51"/>
       <use x="63.623047" xlink:href="#DejaVuSans-48"/>
      </g>
     </g>
    </g>
    <g id="ytick_8">
     <g id="line2d_27">
      <g>
       <use style="stroke:#000000;stroke-width:0.8;" x="72" xlink:href="#m0d5b9ba9a5" y="413.583762"/>
      </g>
     </g>
     <g id="text_30">
      <!-- 35 -->
      <g transform="translate(52.275 417.38298)scale(0.1 -0.1)">
       <use xlink:href="#DejaVuSans-51"/>
       <use x="63.623047" xlink:href="#DejaVuSans-53"/>
      </g>
     </g>
    </g>
    <g id="ytick_9">
     <g id="line2d_28">
      <g>
       <use style="stroke:#000000;stroke-width:0.8;" x="72" xlink:href="#m0d5b9ba9a5" y="468.208355"/>
      </g>
     </g>
     <g id="text_31">
      <!-- 40 -->
      <g transform="translate(52.275 472.007574)scale(0.1 -0.1)">
       <use xlink:href="#DejaVuSans-52"/>
       <use x="63.623047" xlink:href="#DejaVuSans-48"/>
      </g>
     </g>
    </g>
    <g id="text_32">
     <!-- ppm -->
     <g transform="translate(46.195312 346.45075)rotate(-90)scale(0.1 -0.1)">
      <use xlink:href="#DejaVuSans-112"/>
      <use x="63.476562" xlink:href="#DejaVuSans-112"/>
      <use x="126.953125" xlink:href="#DejaVuSans-109"/>
     </g>
    </g>
   </g>
   <g id="LineCollection_1">
    <path clip-path="url(#p095a872cba)" style="fill:none;stroke:#440154;stroke-width:1.5;"/>
    <path clip-path="url(#p095a872cba)" d="M 297.12445 577 
L 297.220112 576.117038 
L 297.03634 572.910115 
L 296.532525 571.073837 
L 295.408729 572.087982 
L 295.246019 572.910115 
L 295.081728 576.117038 
L 295.165751 577 
" style="fill:none;stroke:#440154;stroke-width:1.5;"/>
    <path clip-path="url(#p095a872cba)" d="M 301.099807 577 
L 301.203176 576.117038 
L 301.027707 573.348861 
L 300.987605 572.910115 
L 299.903911 570.545302 
L 298.789809 572.910115 
L 298.780116 573.011902 
L 298.481505 576.117038 
L 298.646364 577 
" style="fill:none;stroke:#440154;stroke-width:1.5;"/>
    <path clip-path="url(#p095a872cba)" d="M 293.161138 576.16435 
L 293.165977 576.117038 
L 293.161138 576.030077 
L 292.794831 576.117038 
L 293.161138 576.16435 
" style="fill:none;stroke:#440154;stroke-width:1.5;"/>
    <path clip-path="url(#p095a872cba)" style="fill:none;stroke:#440154;stroke-width:1.5;"/>
    <path clip-path="url(#p095a872cba)" d="M 203.2575 519.131474 
L 204.381295 518.949663 
L 204.664955 518.392419 
L 205.166444 515.185495 
L 204.445251 511.978572 
L 204.381295 511.866567 
L 203.2575 511.705913 
L 203.078076 511.978572 
L 202.266584 515.185495 
L 202.820233 518.392419 
L 203.2575 519.131474 
" style="fill:none;stroke:#440154;stroke-width:1.5;"/>
    <path clip-path="url(#p095a872cba)" d="M 208.876477 518.904137 
L 210.000273 519.196312 
L 210.706909 518.392419 
L 211.124068 516.91744 
L 211.394292 515.185495 
L 211.124068 513.857515 
L 210.405301 511.978572 
L 210.000273 511.541784 
L 208.876477 511.823833 
L 208.798022 511.978572 
L 208.16677 515.185495 
L 208.635585 518.392419 
L 208.876477 518.904137 
" style="fill:none;stroke:#440154;stroke-width:1.5;"/>
    <path clip-path="url(#p095a872cba)" d="M 84.135179 422.850902 
L 85.258974 422.557406 
L 85.569461 422.184719 
L 86.38277 420.73245 
L 87.4161 418.977796 
L 87.506565 417.958148 
L 87.622714 418.977796 
L 88.630361 420.45564 
L 89.754156 420.341608 
L 90.381772 418.977796 
L 90.578036 415.770873 
L 89.754156 413.388867 
L 88.630361 413.18331 
L 87.506565 415.171439 
L 86.38277 412.647671 
L 86.355559 412.563949 
L 85.258974 411.00869 
L 84.135179 410.780933 
L 83.011383 411.663916 
L 82.507443 412.563949 
L 81.887588 415.455758 
L 80.763792 414.983084 
L 79.639997 413.156398 
L 78.516201 414.824631 
L 78.283822 415.770873 
L 78.504634 418.977796 
L 78.516201 419.009763 
L 79.639997 420.202634 
L 80.631736 418.977796 
L 80.763792 418.131691 
L 81.887588 416.880183 
L 81.976441 418.977796 
L 83.011383 421.88537 
L 83.306934 422.184719 
L 84.135179 422.850902 
" style="fill:none;stroke:#440154;stroke-width:1.5;"/>
    <path clip-path="url(#p095a872cba)" d="M 152.686703 422.423666 
L 153.810498 423.259656 
L 154.934294 423.13355 
L 155.906464 422.184719 
L 156.058089 421.985464 
L 157.017584 418.977796 
L 157.122409 415.770873 
L 156.522342 412.563949 
L 156.058089 411.601217 
L 154.934294 410.581497 
L 153.810498 410.490902 
L 152.686703 411.328587 
L 151.976114 412.563949 
L 151.562908 414.182813 
L 150.628491 412.563949 
L 150.439112 412.361063 
L 149.315317 411.132649 
L 148.191521 411.299404 
L 147.166014 412.563949 
L 147.067726 412.804302 
L 146.393549 415.770873 
L 146.561045 418.977796 
L 147.067726 420.514194 
L 148.191521 422.048495 
L 149.315317 422.173476 
L 150.439112 420.829131 
L 151.562908 419.783385 
L 152.525567 422.184719 
L 152.686703 422.423666 
" style="fill:none;stroke:#440154;stroke-width:1.5;"/>
    <path clip-path="url(#p095a872cba)" d="M 213.371659 397.881595 
L 214.495454 398.82728 
L 215.61925 397.978572 
L 216.087612 396.529333 
L 216.366705 393.322409 
L 215.968992 390.115486 
L 215.61925 389.197632 
L 214.495454 388.431398 
L 213.371659 389.339474 
L 213.0128 390.115486 
L 212.483767 393.322409 
L 212.815619 396.529333 
L 213.371659 397.881595 
" style="fill:none;stroke:#440154;stroke-width:1.5;"/>
    <path clip-path="url(#p095a872cba)" d="M 218.990636 398.679598 
L 220.114432 398.870655 
L 221.238227 397.513789 
L 221.624781 396.529333 
L 221.965535 393.322409 
L 221.391875 390.115486 
L 221.238227 389.778592 
L 220.114432 388.526774 
L 218.990636 388.754831 
L 218.299925 390.115486 
L 217.866841 392.738086 
L 217.707898 393.322409 
L 217.866841 394.225011 
L 218.079703 396.529333 
L 218.990636 398.679598 
" style="fill:none;stroke:#440154;stroke-width:1.5;"/>
    <path clip-path="url(#p095a872cba)" d="M 357.217481 397.854229 
L 358.341276 397.514462 
L 359.046084 396.529333 
L 359.465072 394.427337 
L 360.588867 395.80764 
L 360.845866 396.529333 
L 361.712663 397.284494 
L 362.55413 396.529333 
L 362.836458 395.76626 
L 363.142186 393.322409 
L 362.836458 391.614828 
L 361.902627 390.115486 
L 361.712663 389.973425 
L 361.531176 390.115486 
L 360.588867 391.699508 
L 359.465072 392.556621 
L 358.719544 390.115486 
L 358.341276 389.621402 
L 357.217481 389.272882 
L 356.536204 390.115486 
L 356.093685 391.484307 
L 355.759977 393.322409 
L 356.093685 395.815521 
L 356.248648 396.529333 
L 357.217481 397.854229 
" style="fill:none;stroke:#440154;stroke-width:1.5;"/>
    <path clip-path="url(#p095a872cba)" style="fill:none;stroke:#440154;stroke-width:1.5;"/>
    <path clip-path="url(#p095a872cba)" d="M 297.65632 304.315743 
L 298.780116 304.625226 
L 299.903911 303.55574 
L 299.916743 303.528557 
L 299.903911 303.491402 
L 298.780116 301.551414 
L 297.65632 301.425371 
L 297.123173 303.528557 
L 297.65632 304.315743 
" style="fill:none;stroke:#440154;stroke-width:1.5;"/>
    <path clip-path="url(#p095a872cba)" d="M 160.553271 300.430313 
L 161.677067 301.06873 
L 162.616457 300.321633 
L 162.800862 299.763197 
L 163.450312 297.11471 
L 162.800862 295.95278 
L 161.677067 294.894999 
L 160.553271 295.799342 
L 160.155257 297.11471 
L 160.502412 300.321633 
L 160.553271 300.430313 
" style="fill:none;stroke:#440154;stroke-width:1.5;"/>
    <path clip-path="url(#p095a872cba)" d="M 275.18041 300.360865 
L 276.304206 300.775244 
L 276.51793 300.321633 
L 276.984794 297.11471 
L 276.304206 294.507342 
L 275.18041 295.8524 
L 274.885539 297.11471 
L 275.165519 300.321633 
L 275.18041 300.360865 
" style="fill:none;stroke:#440154;stroke-width:1.5;"/>
    <path clip-path="url(#p095a872cba)" d="M 280.799388 300.879689 
L 281.179734 300.321633 
L 281.923183 297.3719 
L 281.950109 297.11471 
L 281.923183 296.805679 
L 280.799388 294.070247 
L 279.675592 296.94472 
L 279.643833 297.11471 
L 279.675592 297.561359 
L 280.253922 300.321633 
L 280.799388 300.879689 
" style="fill:none;stroke:#440154;stroke-width:1.5;"/>
    <path clip-path="url(#p095a872cba)" d="M 295.408729 297.222685 
L 296.532525 299.97564 
L 297.65632 300.252112 
L 298.780116 300.198938 
L 299.903911 299.880976 
L 301.027707 298.339724 
L 301.556559 297.11471 
L 302.094172 293.907787 
L 302.151502 291.91013 
L 303.275298 293.618548 
L 303.581538 290.700863 
L 303.275298 288.503826 
L 302.151502 289.744707 
L 302.058591 287.49394 
L 301.250327 284.287017 
L 301.027707 283.770853 
L 299.903911 281.666791 
L 298.780116 281.308967 
L 297.65632 281.327825 
L 296.532525 281.840872 
L 295.592241 284.287017 
L 295.408729 285.35934 
L 294.284934 287.248696 
L 294.169313 287.49394 
L 293.509071 290.700863 
L 293.739631 293.907787 
L 294.284934 295.366358 
L 295.3161 297.11471 
L 295.408729 297.222685 
" style="fill:none;stroke:#440154;stroke-width:1.5;"/>
    <path clip-path="url(#p095a872cba)" d="M 195.390931 278.385676 
L 196.514727 278.741454 
L 197.638522 277.910844 
L 198.762318 278.551044 
L 199.886113 280.117975 
L 201.009909 279.644629 
L 201.520516 277.87317 
L 201.009909 275.362737 
L 200.093642 274.666247 
L 199.886113 274.607519 
L 199.795268 274.666247 
L 198.762318 276.77877 
L 197.638522 277.809169 
L 196.514727 276.437938 
L 195.390931 277.056985 
L 195.166603 277.87317 
L 195.390931 278.385676 
" style="fill:none;stroke:#440154;stroke-width:1.5;"/>
    <path clip-path="url(#p095a872cba)" d="M 297.65632 278.78675 
L 298.780116 279.075755 
L 299.346049 277.87317 
L 298.780116 277.251208 
L 297.65632 277.438731 
L 297.33649 277.87317 
L 297.65632 278.78675 
" style="fill:none;stroke:#440154;stroke-width:1.5;"/>
    <path clip-path="url(#p095a872cba)" d="M 345.979526 278.144272 
L 346.10722 277.87317 
L 345.979526 277.472595 
L 345.710415 277.87317 
L 345.979526 278.144272 
" style="fill:none;stroke:#440154;stroke-width:1.5;"/>
    <path clip-path="url(#p095a872cba)" d="M 375.198208 239.54504 
L 376.322004 241.662322 
L 377.445799 241.919371 
L 378.569595 241.631878 
L 379.69339 241.684486 
L 380.817186 241.834967 
L 381.940981 241.230568 
L 382.676683 239.39009 
L 383.029547 236.183167 
L 383.064777 233.828897 
L 384.188572 234.869903 
L 384.374235 232.976244 
L 384.188572 232.054495 
L 383.064777 232.576024 
L 382.956818 229.76932 
L 382.219132 226.562397 
L 381.940981 225.834845 
L 380.817186 224.829309 
L 379.69339 225.166051 
L 378.569595 225.226395 
L 377.445799 224.615629 
L 376.322004 225.036008 
L 375.582877 226.562397 
L 375.198208 227.531403 
L 374.464598 229.76932 
L 374.19763 232.976244 
L 374.300307 236.183167 
L 375.124179 239.39009 
L 375.198208 239.54504 
" style="fill:none;stroke:#440154;stroke-width:1.5;"/>
    <path clip-path="url(#p095a872cba)" d="M 340.360548 161.183853 
L 341.484344 161.969583 
L 342.608139 161.626159 
L 343.731935 160.052263 
L 344.85573 161.813842 
L 345.979526 161.853315 
L 347.103321 160.373207 
L 347.481927 159.217007 
L 347.890223 156.010084 
L 347.925493 152.803161 
L 347.683247 149.596237 
L 347.103321 147.538738 
L 346.286311 146.389314 
L 345.979526 145.757893 
L 344.85573 145.864718 
L 344.616692 146.389314 
L 343.731935 147.870751 
L 342.608139 146.445803 
L 342.451785 146.389314 
L 341.484344 145.55838 
L 340.926819 146.389314 
L 340.360548 146.838132 
L 339.559807 149.596237 
L 339.375784 152.803161 
L 339.399486 156.010084 
L 339.698588 159.217007 
L 340.360548 161.183853 
" style="fill:none;stroke:#440154;stroke-width:1.5;"/>
   </g>
   <g id="LineCollection_2">
    <path clip-path="url(#p095a872cba)" style="fill:none;stroke:#482878;stroke-width:1.5;"/>
    <path clip-path="url(#p095a872cba)" style="fill:none;stroke:#482878;stroke-width:1.5;"/>
    <path clip-path="url(#p095a872cba)" d="M 84.135179 419.853803 
L 85.258974 419.307329 
L 85.41101 418.977796 
L 85.670197 415.770873 
L 85.258974 414.539131 
L 84.135179 413.867994 
L 83.193161 415.770873 
L 83.53511 418.977796 
L 84.135179 419.853803 
" style="fill:none;stroke:#482878;stroke-width:1.5;"/>
    <path clip-path="url(#p095a872cba)" d="M 153.810498 420.424258 
L 154.934294 420.193117 
L 155.635875 418.977796 
L 155.8973 415.770873 
L 154.934294 413.527566 
L 153.810498 413.277637 
L 152.686703 415.449056 
L 152.594048 415.770873 
L 152.686703 417.429133 
L 152.816047 418.977796 
L 153.810498 420.424258 
" style="fill:none;stroke:#482878;stroke-width:1.5;"/>
    <path clip-path="url(#p095a872cba)" d="M 149.315317 416.986738 
L 149.468296 415.770873 
L 149.315317 415.402973 
L 148.206578 415.770873 
L 149.315317 416.986738 
" style="fill:none;stroke:#482878;stroke-width:1.5;"/>
    <path clip-path="url(#p095a872cba)" d="M 296.532525 299.157544 
L 297.65632 299.77838 
L 298.780116 299.750335 
L 299.903911 299.204984 
L 300.890891 297.11471 
L 301.027707 296.401273 
L 301.66726 293.907787 
L 301.823918 290.700863 
L 301.573057 287.49394 
L 301.027707 285.647509 
L 300.652616 284.287017 
L 299.903911 282.654832 
L 298.780116 281.976515 
L 297.65632 282.049147 
L 296.532525 283.132228 
L 296.088631 284.287017 
L 295.457336 287.49394 
L 295.408729 288.728087 
L 294.910663 290.700863 
L 295.289941 293.907787 
L 295.408729 294.166659 
L 295.72312 297.11471 
L 296.532525 299.157544 
" style="fill:none;stroke:#482878;stroke-width:1.5;"/>
    <path clip-path="url(#p095a872cba)" d="M 376.322004 240.405442 
L 377.445799 240.885218 
L 378.569595 240.239762 
L 379.69339 240.365248 
L 380.817186 240.715043 
L 381.940981 239.519483 
L 381.992704 239.39009 
L 382.694559 236.183167 
L 382.787255 232.976244 
L 382.552647 229.76932 
L 381.940981 227.627981 
L 380.817186 226.611504 
L 379.69339 226.877685 
L 378.569595 227.048452 
L 377.556405 226.562397 
L 377.445799 226.476638 
L 377.302952 226.562397 
L 376.322004 226.888483 
L 375.265622 229.76932 
L 375.198208 230.559435 
L 374.844952 232.976244 
L 375.063308 236.183167 
L 375.198208 236.684753 
L 375.806604 239.39009 
L 376.322004 240.405442 
" style="fill:none;stroke:#482878;stroke-width:1.5;"/>
    <path clip-path="url(#p095a872cba)" d="M 341.484344 160.760116 
L 342.608139 160.064864 
L 343.087945 159.217007 
L 343.731935 156.949017 
L 344.219126 159.217007 
L 344.85573 160.48377 
L 345.979526 160.558009 
L 346.700141 159.217007 
L 347.103321 157.628884 
L 347.395447 156.010084 
L 347.464509 152.803161 
L 347.103321 150.186199 
L 347.007385 149.596237 
L 345.979526 147.364787 
L 344.85573 147.42942 
L 343.933481 149.596237 
L 343.731935 151.065146 
L 343.455776 149.596237 
L 342.608139 147.877826 
L 341.484344 147.225604 
L 340.360548 148.64857 
L 340.085419 149.596237 
L 339.720505 152.803161 
L 339.768739 156.010084 
L 340.360548 159.203238 
L 340.366603 159.217007 
L 341.484344 160.760116 
" style="fill:none;stroke:#482878;stroke-width:1.5;"/>
   </g>
   <g id="LineCollection_3">
    <path clip-path="url(#p095a872cba)" d="M 297.65632 298.357183 
L 298.780116 298.404528 
L 299.903911 297.177005 
L 299.933326 297.11471 
L 300.804545 293.907787 
L 300.932371 290.700863 
L 300.709486 287.49394 
L 299.903911 284.995821 
L 299.066573 284.287017 
L 298.780116 283.979158 
L 297.65632 284.213112 
L 297.604178 284.287017 
L 296.532525 285.652011 
L 296.009515 287.49394 
L 295.753505 290.700863 
L 295.867606 293.907787 
L 296.532525 296.77347 
L 296.713351 297.11471 
L 297.65632 298.357183 
" style="fill:none;stroke:#26828e;stroke-width:1.5;"/>
    <path clip-path="url(#p095a872cba)" d="M 376.322004 237.029999 
L 377.445799 238.007758 
L 378.569595 236.513883 
L 379.69339 236.823855 
L 380.817186 237.640447 
L 381.568442 236.183167 
L 381.912533 232.976244 
L 381.060084 229.76932 
L 380.817186 229.389707 
L 380.216655 229.76932 
L 379.69339 230.397792 
L 378.569595 230.938072 
L 378.078749 229.76932 
L 377.445799 229.07159 
L 376.54584 229.76932 
L 376.322004 230.107102 
L 375.856534 232.976244 
L 376.077126 236.183167 
L 376.322004 237.029999 
" style="fill:none;stroke:#26828e;stroke-width:1.5;"/>
    <path clip-path="url(#p095a872cba)" d="M 341.484344 157.118784 
L 342.252319 156.010084 
L 342.523513 152.803161 
L 341.484344 150.855315 
L 340.880852 152.803161 
L 341.040809 156.010084 
L 341.484344 157.118784 
" style="fill:none;stroke:#26828e;stroke-width:1.5;"/>
    <path clip-path="url(#p095a872cba)" d="M 344.85573 156.497627 
L 345.979526 156.676409 
L 346.177511 156.010084 
L 346.310599 152.803161 
L 345.979526 151.34311 
L 344.85573 151.55927 
L 344.594781 152.803161 
L 344.721146 156.010084 
L 344.85573 156.497627 
" style="fill:none;stroke:#26828e;stroke-width:1.5;"/>
   </g>
   <g id="LineCollection_4">
    <path clip-path="url(#p095a872cba)" d="M 297.65632 296.197488 
L 298.780116 296.34953 
L 299.903911 294.478006 
L 300.061617 293.907787 
L 300.310913 290.700863 
L 299.903911 287.720464 
L 299.846624 287.49394 
L 298.780116 285.873946 
L 297.65632 286.106778 
L 296.944234 287.49394 
L 296.532525 289.814312 
L 296.422226 290.700863 
L 296.532525 292.35272 
L 296.662536 293.907787 
L 297.65632 296.197488 
" style="fill:none;stroke:#fde725;stroke-width:1.5;"/>
   </g>
   <g id="patch_8">
    <path d="M 72 512.64 
L 72 157.824 
" style="fill:none;stroke:#000000;stroke-linecap:square;stroke-linejoin:miter;stroke-width:0.8;"/>
   </g>
   <g id="patch_9">
    <path d="M 429.12 512.64 
L 429.12 157.824 
" style="fill:none;stroke:#000000;stroke-linecap:square;stroke-linejoin:miter;stroke-width:0.8;"/>
   </g>
   <g id="patch_10">
    <path d="M 72 512.64 
L 429.12 512.64 
" style="fill:none;stroke:#000000;stroke-linecap:square;stroke-linejoin:miter;stroke-width:0.8;"/>
   </g>
   <g id="patch_11">
    <path d="M 72 157.824 
L 429.12 157.824 
" style="fill:none;stroke:#000000;stroke-linecap:square;stroke-linejoin:miter;stroke-width:0.8;"/>
   </g>
  </g>
  <g id="axes_3">
   <g id="patch_12">
    <path d="M 429.12 512.64 
L 518.4 512.64 
L 518.4 157.824 
L 429.12 157.824 
z
" style="fill:#ffffff;"/>
   </g>
   <g id="matplotlib.axis_5">
    <g id="xtick_19">
     <g id="line2d_29">
      <g>
       <use style="stroke:#000000;stroke-width:0.8;" x="433.137599" xlink:href="#m1c828825da" y="512.64"/>
      </g>
     </g>
     <g id="text_33">
      <!-- 0 -->
      <g transform="translate(429.956349 527.238438)scale(0.1 -0.1)">
       <use xlink:href="#DejaVuSans-48"/>
      </g>
     </g>
    </g>
    <g id="xtick_20">
     <g id="line2d_30">
      <g>
       <use style="stroke:#000000;stroke-width:0.8;" x="505.785734" xlink:href="#m1c828825da" y="512.64"/>
      </g>
     </g>
     <g id="text_34">
      <!-- 2 -->
      <g transform="translate(502.604484 527.238438)scale(0.1 -0.1)">
       <use xlink:href="#DejaVuSans-50"/>
      </g>
     </g>
    </g>
    <g id="text_35">
     <!-- 1e9 -->
     <g transform="translate(499.521875 539.916563)scale(0.1 -0.1)">
      <use xlink:href="#DejaVuSans-49"/>
      <use x="63.623047" xlink:href="#DejaVuSans-101"/>
      <use x="125.146484" xlink:href="#DejaVuSans-57"/>
     </g>
    </g>
   </g>
   <g id="matplotlib.axis_6">
    <g id="ytick_10">
     <g id="line2d_31">
      <g>
       <use style="stroke:#000000;stroke-width:0.8;" x="429.12" xlink:href="#m0d5b9ba9a5" y="195.085386"/>
      </g>
     </g>
     <g id="text_36">
      <!-- 15 -->
      <g transform="translate(409.395 198.884605)scale(0.1 -0.1)">
       <use xlink:href="#DejaVuSans-49"/>
       <use x="63.623047" xlink:href="#DejaVuSans-53"/>
      </g>
     </g>
    </g>
    <g id="ytick_11">
     <g id="line2d_32">
      <g>
       <use style="stroke:#000000;stroke-width:0.8;" x="429.12" xlink:href="#m0d5b9ba9a5" y="249.70998"/>
      </g>
     </g>
     <g id="text_37">
      <!-- 20 -->
      <g transform="translate(409.395 253.509199)scale(0.1 -0.1)">
       <use xlink:href="#DejaVuSans-50"/>
       <use x="63.623047" xlink:href="#DejaVuSans-48"/>
      </g>
     </g>
    </g>
    <g id="ytick_12">
     <g id="line2d_33">
      <g>
       <use style="stroke:#000000;stroke-width:0.8;" x="429.12" xlink:href="#m0d5b9ba9a5" y="304.334574"/>
      </g>
     </g>
     <g id="text_38">
      <!-- 25 -->
      <g transform="translate(409.395 308.133793)scale(0.1 -0.1)">
       <use xlink:href="#DejaVuSans-50"/>
       <use x="63.623047" xlink:href="#DejaVuSans-53"/>
      </g>
     </g>
    </g>
    <g id="ytick_13">
     <g id="line2d_34">
      <g>
       <use style="stroke:#000000;stroke-width:0.8;" x="429.12" xlink:href="#m0d5b9ba9a5" y="358.959168"/>
      </g>
     </g>
     <g id="text_39">
      <!-- 30 -->
      <g transform="translate(409.395 362.758387)scale(0.1 -0.1)">
       <use xlink:href="#DejaVuSans-51"/>
       <use x="63.623047" xlink:href="#DejaVuSans-48"/>
      </g>
     </g>
    </g>
    <g id="ytick_14">
     <g id="line2d_35">
      <g>
       <use style="stroke:#000000;stroke-width:0.8;" x="429.12" xlink:href="#m0d5b9ba9a5" y="413.583762"/>
      </g>
     </g>
     <g id="text_40">
      <!-- 35 -->
      <g transform="translate(409.395 417.38298)scale(0.1 -0.1)">
       <use xlink:href="#DejaVuSans-51"/>
       <use x="63.623047" xlink:href="#DejaVuSans-53"/>
      </g>
     </g>
    </g>
    <g id="ytick_15">
     <g id="line2d_36">
      <g>
       <use style="stroke:#000000;stroke-width:0.8;" x="429.12" xlink:href="#m0d5b9ba9a5" y="468.208355"/>
      </g>
     </g>
     <g id="text_41">
      <!-- 40 -->
      <g transform="translate(409.395 472.007574)scale(0.1 -0.1)">
       <use xlink:href="#DejaVuSans-52"/>
       <use x="63.623047" xlink:href="#DejaVuSans-48"/>
      </g>
     </g>
    </g>
   </g>
   <g id="line2d_37">
    <path clip-path="url(#pe575df1552)" d="M 440.354351 577 
L 440.947447 576.117038 
L 439.76582 572.910115 
L 436.283341 569.703192 
L 433.611108 566.496268 
L 435.03188 563.289345 
L 436.216421 560.082422 
L 442.954344 553.668575 
L 442.544014 550.461652 
L 438.765099 547.254729 
L 434.692078 544.047805 
L 433.547464 540.840882 
L 433.304228 534.427035 
L 433.243914 531.220112 
L 433.504107 528.013189 
L 433.229082 524.806265 
L 435.24634 521.599342 
L 437.850642 518.392419 
L 438.9471 515.185495 
L 437.558617 511.978572 
L 434.909553 508.771649 
L 433.222163 505.564725 
L 433.503729 502.357802 
L 433.189997 499.150879 
L 433.276186 495.943955 
L 433.213905 489.530109 
L 433.32684 483.116262 
L 433.206019 470.288569 
L 433.207927 451.047029 
L 433.337043 447.840106 
L 433.586073 444.633182 
L 433.386268 441.426259 
L 434.559323 438.219336 
L 436.034617 435.012412 
L 436.23455 431.805489 
L 434.993455 428.598566 
L 434.170865 425.391643 
L 443.340086 418.977796 
L 444.148631 415.770873 
L 440.430585 412.563949 
L 435.429608 409.357026 
L 433.802804 406.150103 
L 433.704007 402.943179 
L 436.27135 399.736256 
L 439.703744 396.529333 
L 441.016645 393.322409 
L 439.043083 390.115486 
L 438.872913 386.908563 
L 437.466568 383.701639 
L 434.841682 380.494716 
L 433.421216 377.287793 
L 433.406184 374.080869 
L 433.234322 370.873946 
L 433.225151 364.4601 
L 433.238715 348.425483 
L 433.24002 345.21856 
L 433.355963 342.011636 
L 433.192137 338.804713 
L 433.39504 335.59779 
L 433.274928 332.390866 
L 433.559834 329.183943 
L 433.189361 325.97702 
L 433.603489 322.770096 
L 433.465436 319.563173 
L 434.486564 316.35625 
L 433.515201 313.149326 
L 435.349156 309.942403 
L 433.762355 306.73548 
L 438.983168 303.528557 
L 437.705235 300.321633 
L 465.112542 297.11471 
L 501.269616 293.907787 
L 514.341818 290.700863 
L 492.552244 287.49394 
L 455.311133 284.287017 
L 436.807348 281.080093 
L 438.108831 277.87317 
L 437.239527 274.666247 
L 435.146142 271.459323 
L 433.36427 268.2524 
L 434.145025 265.045477 
L 433.275759 261.838553 
L 433.767788 258.63163 
L 433.306692 255.424707 
L 434.142137 252.217783 
L 433.499544 249.01086 
L 435.328124 245.803937 
L 434.537301 242.597014 
L 447.128078 239.39009 
L 461.768212 236.183167 
L 466.379717 232.976244 
L 456.773688 229.76932 
L 441.445123 226.562397 
L 434.448498 223.355474 
L 435.07299 220.14855 
L 433.50709 216.941627 
L 433.92398 213.734704 
L 433.27937 210.52778 
L 433.559483 207.320857 
L 433.215257 204.113934 
L 433.377764 200.90701 
L 433.186276 197.700087 
L 433.263342 194.493164 
L 433.245052 184.872394 
L 433.37961 175.251624 
L 433.71471 172.044701 
L 433.682658 168.837777 
L 435.672553 162.423931 
L 457.137652 156.010084 
L 458.822898 152.803161 
L 449.958307 149.596237 
L 438.188815 146.389314 
L 434.364109 143.182391 
L 434.309733 139.975467 
L 433.43897 136.768544 
L 433.54089 133.561621 
L 433.321408 130.354697 
L 433.406558 127.147774 
L 433.191792 123.940851 
L 433.282769 114.320081 
L 433.191269 107.906234 
L 433.252305 30.940075 
L 433.530958 27.733151 
L 433.684101 24.526228 
L 433.564315 21.319305 
L 433.835098 18.112381 
L 434.25849 14.905458 
L 434.549105 11.698535 
L 434.174996 8.491611 
L 433.531843 5.284688 
L 433.1936 -1 
L 433.1936 -1 
" style="fill:none;stroke:#1f77b4;stroke-linecap:square;stroke-width:1.5;"/>
   </g>
   <g id="patch_13">
    <path d="M 429.12 512.64 
L 429.12 157.824 
" style="fill:none;stroke:#000000;stroke-linecap:square;stroke-linejoin:miter;stroke-width:0.8;"/>
   </g>
   <g id="patch_14">
    <path d="M 518.4 512.64 
L 518.4 157.824 
" style="fill:none;stroke:#000000;stroke-linecap:square;stroke-linejoin:miter;stroke-width:0.8;"/>
   </g>
   <g id="patch_15">
    <path d="M 429.12 512.64 
L 518.4 512.64 
" style="fill:none;stroke:#000000;stroke-linecap:square;stroke-linejoin:miter;stroke-width:0.8;"/>
   </g>
   <g id="patch_16">
    <path d="M 429.12 157.824 
L 518.4 157.824 
" style="fill:none;stroke:#000000;stroke-linecap:square;stroke-linejoin:miter;stroke-width:0.8;"/>
   </g>
  </g>
 </g>
 <defs>
  <clipPath id="p195ce05a01">
   <rect height="88.704" width="357.12" x="72" y="69.12"/>
  </clipPath>
  <clipPath id="p095a872cba">
   <rect height="354.816" width="357.12" x="72" y="157.824"/>
  </clipPath>
  <clipPath id="pe575df1552">
   <rect height="354.816" width="89.28" x="429.12" y="157.824"/>
  </clipPath>
 </defs>
</svg>
